<svg width="40" height="33" viewBox="0 0 40 33" fill="none" xmlns="http://www.w3.org/2000/svg"><path d="M7.293 32.659c-.092.376-.977.558-1.35-.082-.028-.495 0-5.424 0-5.424l1.35.082s.041 4.919 0 5.421v.003z" fill="#927B78"/><path d="M13.332 21.625c0 3.712-2.982 6.55-6.666 6.328C2.985 27.727 0 24.524 0 20.81s2.982-6.558 6.666-6.333c3.684.223 6.666 3.425 6.666 7.148z" fill="#00FD79"/><path d="M19.188 24.497c-.093.376-.977.558-1.35-.082-.028-.495 0-5.424 0-5.424l1.35.082s.04 4.919 0 5.421v.003z" fill="#927B78"/><path d="M25.226 13.46c0 3.712-2.982 6.55-6.665 6.328-3.682-.226-6.666-3.428-6.666-7.143 0-3.714 2.982-6.558 6.666-6.333 3.683.223 6.665 3.426 6.665 7.148z" fill="#14DA79"/><path d="M33.99 26.882c-.11.425-1.072.686-1.468 0-.018-.538.118-6.96.118-6.96h1.468s-.059 6.404-.118 6.96z" fill="#927B78"/><path d="M39.946 11.426C39.586 7.847 37.543.515 33.326 0c-.061 0-.15.005-.23.008-4.852.807-8.165 12.368-5.543 16.283 4.131 7.463 13.208 2.674 12.396-4.865h-.003z" fill="#27B66D"/></svg>