<svg width="88" height="31" viewBox="0 0 88 31" fill="none" xmlns="http://www.w3.org/2000/svg"><g clip-path="url(#clip0_16_34)" fill="#fff"><path d="M26.336 17.12a32.133 32.133 0 00-2.874-.136c-.97 0-1.93.051-2.875.136a3.942 3.942 0 00-2.583 1.305 4.134 4.134 0 00-1.047 2.75v9.64h1.714v-9.64c.003-.593.226-1.161.621-1.592.396-.431.937-.692 1.513-.731a37.3 37.3 0 012.657-.11 37.3 37.3 0 012.657.11c.576.039 1.116.3 1.512.73.396.432.618 1 .621 1.592v9.641h1.715v-9.64c-.001-1.02-.374-2.001-1.046-2.752a3.936 3.936 0 00-2.585-1.302zm16.695-.023a65.255 65.255 0 00-3.55-.113c-1.196 0-2.38.049-3.552.113a3.955 3.955 0 00-2.686 1.265 4.152 4.152 0 00-1.103 2.812v5.587a4.15 4.15 0 001.103 2.811 3.954 3.954 0 002.686 1.265c1.173.065 2.356.114 3.551.114 1.195 0 2.379-.05 3.551-.114a3.954 3.954 0 002.687-1.265 4.15 4.15 0 001.102-2.811v-.316h-1.714v.316a2.362 2.362 0 01-.625 1.594 2.25 2.25 0 01-1.52.722c-1.148.07-2.31.116-3.48.116-1.172 0-2.333-.047-3.481-.117a2.25 2.25 0 01-1.52-.722c-.4-.43-.623-1-.625-1.593v-5.587a2.362 2.362 0 01.624-1.594 2.25 2.25 0 011.52-.722c1.15-.07 2.31-.117 3.481-.117 1.172 0 2.332.047 3.481.117a2.25 2.25 0 011.52.722c.399.43.622 1 .625 1.594v1.892H38.03v1.802h8.79v-3.694a4.152 4.152 0 00-1.103-2.812 3.956 3.956 0 00-2.686-1.265zm-32.092 0a65.253 65.253 0 00-3.55-.113c-1.196 0-2.38.049-3.552.113a3.955 3.955 0 00-2.686 1.265 4.152 4.152 0 00-1.103 2.812v5.587a4.15 4.15 0 001.103 2.811 3.954 3.954 0 002.686 1.265c1.172.065 2.356.114 3.551.114 1.195 0 2.379-.05 3.551-.114a3.954 3.954 0 002.686-1.265 4.15 4.15 0 001.103-2.811v-.316h-1.714v.316a2.362 2.362 0 01-.625 1.594 2.25 2.25 0 01-1.52.722c-1.149.07-2.31.116-3.48.116-1.172 0-2.333-.047-3.482-.117a2.25 2.25 0 01-1.52-.722c-.399-.43-.622-1-.625-1.593v-5.587a2.362 2.362 0 01.625-1.594 2.25 2.25 0 011.52-.722c1.15-.07 2.31-.117 3.481-.117 1.171 0 2.332.047 3.48.117a2.25 2.25 0 011.521.722c.399.43.622 1 .625 1.594v1.892H5.938v1.802h8.79v-3.694a4.152 4.152 0 00-1.103-2.812 3.956 3.956 0 00-2.686-1.265zm57.804 0a64.268 64.268 0 00-3.55-.113c-1.196 0-2.38.049-3.552.114a3.953 3.953 0 00-2.686 1.265 4.15 4.15 0 00-1.103 2.811v5.587a4.151 4.151 0 001.103 2.811 3.955 3.955 0 002.686 1.266c1.172.064 2.356.113 3.551.113a65.25 65.25 0 003.551-.113 3.955 3.955 0 002.686-1.266 4.152 4.152 0 001.103-2.811v-3.695h-8.79v1.802h7.076v1.893a2.362 2.362 0 01-.625 1.593 2.25 2.25 0 01-1.52.723c-1.149.07-2.31.116-3.48.116a57.26 57.26 0 01-3.482-.117 2.25 2.25 0 01-1.52-.722c-.399-.43-.622-1-.625-1.593v-5.587a2.361 2.361 0 01.625-1.594 2.25 2.25 0 011.52-.722c1.149-.07 2.31-.117 3.481-.117 1.171 0 2.332.047 3.48.117a2.25 2.25 0 011.521.722c.399.43.622 1 .625 1.594v.315h1.714v-.315a4.15 4.15 0 00-1.103-2.811 3.954 3.954 0 00-2.686-1.265zm-19.505 4.077v9.641h1.714v-9.64c0-1.233.986-2.299 2.177-2.299h3.492V17.12l-3.551.001c-1.867 0-3.832 1.66-3.832 4.054zm38.714-4.055h-2.147l-5.823 7.922a4.104 4.104 0 00-.797 2.44v3.334h1.714v-3.334c0-.499.158-.985.452-1.383l6.6-8.979zm-12.987 0h-2.237l6.105 7.459 1.059-1.44-4.927-6.019zM23.22 8.132h5.212V5.868H23.22V2.77h5.986V.288h-9.59V14.01h9.745v-2.622H23.22V8.132zm16.8.924L36.65.288h-4.848V14.01h2.634V4.294l3.851 9.856h2.318l3.926-9.856v9.717h3.546V.288h-4.606L40.02 9.056zM6.108 5.466c-1.134-.524-1.827-.866-2.08-1.028-.303-.2-.454-.459-.454-.775 0-.847.75-1.27 2.252-1.27 1.067 0 2.221.255 3.464.763V.55C7.619.216 6.342.05 5.459.05 3.857.05 2.558.401 1.56 1.106.553 1.816.048 2.85.048 4.207c0 1.054.346 1.926 1.039 2.617.534.524 1.683 1.157 3.445 1.9.982.414 1.592.737 1.831.97a1.06 1.06 0 01.35.813c0 .866-.8 1.3-2.399 1.3-1.158 0-2.49-.243-3.995-.729v2.71c1.361.33 2.754.497 4.152.5 1.627 0 2.952-.317 3.973-.95 1.261-.78 1.892-1.915 1.892-3.402 0-1.034-.322-1.878-.965-2.53-.542-.55-1.63-1.197-3.263-1.94zm6.34 8.545h3.74V.288h-3.74V14.01zm42.664-5.879h5.21V5.868h-5.21V2.77h5.986V.288h-9.59V14.01h9.745v-2.622h-6.141V8.132zm31.874-.726c-.546-.55-1.63-1.197-3.253-1.94-1.153-.53-1.85-.872-2.09-1.028-.302-.2-.453-.459-.452-.775 0-.847.747-1.27 2.241-1.27 1.072 0 2.23.255 3.473.763V.55l-.33-.059c-1.432-.294-2.598-.441-3.5-.44-1.602 0-2.901.351-3.898 1.056-1.01.71-1.514 1.741-1.513 3.092 0 1.066.346 1.941 1.038 2.626.54.53 1.688 1.163 3.446 1.9.988.413 1.602.737 1.841.97a1.079 1.079 0 01.34.813c0 .866-.8 1.3-2.4 1.3-1.171 0-2.503-.243-3.995-.729v2.71c1.362.33 2.755.497 4.154.5 1.626 0 2.954-.317 3.982-.95 1.254-.78 1.881-1.915 1.881-3.402 0-1.034-.321-1.878-.965-2.53zm-14.34 2.068L68.048.288h-4.334V14.01h2.635V4.7l4.72 9.31h4.21V.288h-2.633v9.186z"/></g><defs><clipPath id="clip0_16_34"><path fill="#fff" d="M0 0h88v31H0z"/></clipPath></defs></svg>