<svg width="87" height="27" viewBox="0 0 87 27" fill="none" xmlns="http://www.w3.org/2000/svg"><rect width="87" height="27" rx="9.745" fill="#fff"/><path d="M15.254 17V9.388h1.331v6.534h3.29V17h-4.62zm10.372-2.398H21.71c.099 1.056.616 1.551 1.617 1.551.56 0 1.1-.176 1.672-.539l.45.946c-.67.385-1.341.561-2.155.561-1.881 0-2.937-1.045-2.937-2.915 0-1.826 1.023-2.937 2.684-2.937 1.166 0 1.969.484 2.31 1.375.198.517.264.99.275 1.958zM21.71 13.7h2.596c-.022-.946-.484-1.485-1.265-1.485-.781 0-1.287.561-1.331 1.485zm8.386 3.3l-.044-.638c-.539.55-1 .759-1.738.759-1.133 0-1.804-.638-1.804-1.694 0-.682.308-1.232.847-1.551.374-.209.913-.308 1.705-.308.22 0 .407.011.913.033v-.11c0-.825-.429-1.276-1.243-1.276-.484 0-.946.143-1.518.473l-.34-.924c.681-.341 1.297-.495 2.034-.495.88 0 1.562.253 1.936.737.32.396.418.825.418 1.892v1.672c.011.715.033 1.221.055 1.43h-1.22zm-.12-1.54v-1.056c-.254-.022-.386-.022-.584-.022-1.056 0-1.55.319-1.55 1.012 0 .517.34.847.868.847.495 0 .902-.253 1.265-.781zm3.12 1.54v-3.498c0-.671-.01-.935-.033-1.859l-.01-.253h1.21l.032 1.056c.33-.77.825-1.144 1.485-1.144.176 0 .286.011.495.066l-.077 1.133a2.281 2.281 0 00-.44-.044c-.638 0-1.144.462-1.386 1.287V17h-1.276zm4.211 0v-3.641c-.01-1.023-.01-1.122-.055-1.969h1.21l.044.825c.682-.704 1.2-.946 1.98-.946.715 0 1.254.275 1.53.792.175.33.252.759.252 1.562V17h-1.287v-3.311c0-.495-.033-.737-.11-.946-.132-.308-.418-.484-.803-.484-.506 0-1.023.33-1.474.946V17h-1.287zm9.518 0V9.388h1.936l1.705 4.829c.154.473.264.847.407 1.331.132-.495.253-.858.407-1.331l1.683-4.829h1.903V17h-1.298v-6.237c-.187.671-.264.902-.517 1.661L51.467 17h-1.265l-1.573-4.477c-.275-.792-.275-.803-.56-1.76V17h-1.244zm12.236-5.731c1.705 0 2.75 1.111 2.75 2.926 0 1.815-1.045 2.926-2.75 2.926-1.716 0-2.75-1.111-2.75-2.959 0-1.782 1.056-2.893 2.75-2.893zm0 .979c-.88 0-1.42.737-1.42 1.925 0 1.232.529 1.969 1.42 1.969.88 0 1.419-.737 1.419-1.947s-.54-1.947-1.42-1.947zM63.206 17v-3.498c0-.671-.01-.935-.033-1.859l-.01-.253h1.21l.032 1.056c.33-.77.826-1.144 1.486-1.144.175 0 .285.011.494.066l-.077 1.133a2.281 2.281 0 00-.44-.044c-.637 0-1.143.462-1.385 1.287V17h-1.277zm9.02-2.398h-3.917c.1 1.056.616 1.551 1.617 1.551.561 0 1.1-.176 1.672-.539l.451.946c-.67.385-1.342.561-2.156.561-1.88 0-2.937-1.045-2.937-2.915 0-1.826 1.023-2.937 2.684-2.937 1.166 0 1.97.484 2.31 1.375.198.517.264.99.275 1.958zm-3.917-.902h2.596c-.022-.946-.484-1.485-1.265-1.485-.78 0-1.287.561-1.33 1.485z" fill="#1B1534"/></svg>