<svg width="119" height="20" viewBox="0 0 119 20" fill="none" xmlns="http://www.w3.org/2000/svg"><path d="M9.24 11.04h-5.2L2.62 15H.2L5.32 1.16H8L13.24 15h-2.58l-1.42-3.96zm-.66-1.9L7.42 5.86c-.34-.94-.46-1.32-.78-2.38-.26.92-.32 1.1-.78 2.38L4.7 9.14h3.88zM17.05 15L13.19 4.8h2.42l2.12 5.64c.26.7.56 1.58.76 2.24.18-.66.46-1.46.74-2.26l2.06-5.62h2.22L19.69 15h-2.64zm13.921 0l-.08-1.16c-.98 1-1.82 1.38-3.16 1.38-2.06 0-3.28-1.16-3.28-3.08 0-1.24.56-2.24 1.54-2.82.68-.38 1.66-.56 3.1-.56.4 0 .74.02 1.66.06v-.2c0-1.5-.78-2.32-2.26-2.32-.88 0-1.72.26-2.76.86l-.62-1.68c1.24-.62 2.36-.9 3.7-.9 1.6 0 2.84.46 3.52 1.34.58.72.76 1.5.76 3.44v3.04c.02 1.3.06 2.22.1 2.6h-2.22zm-.22-2.8v-1.92c-.46-.04-.7-.04-1.06-.04-1.92 0-2.82.58-2.82 1.84 0 .94.62 1.54 1.58 1.54.9 0 1.64-.46 2.3-1.42zm5.655 2.8V4.8h2.34V15h-2.34zM37.566.04c.84 0 1.44.62 1.44 1.46s-.6 1.46-1.44 1.46-1.44-.6-1.44-1.48c0-.82.62-1.44 1.44-1.44zM42.03 15V.38h2.34V15h-2.34zm11.265 0l-.08-1.16c-.98 1-1.82 1.38-3.16 1.38-2.06 0-3.28-1.16-3.28-3.08 0-1.24.56-2.24 1.54-2.82.68-.38 1.66-.56 3.1-.56.4 0 .74.02 1.66.06v-.2c0-1.5-.78-2.32-2.26-2.32-.88 0-1.72.26-2.76.86l-.62-1.68c1.24-.62 2.36-.9 3.7-.9 1.6 0 2.84.46 3.52 1.34.58.72.76 1.5.76 3.44v3.04c.02 1.3.06 2.22.1 2.6h-2.22zm-.22-2.8v-1.92c-.46-.04-.7-.04-1.06-.04-1.92 0-2.82.58-2.82 1.84 0 .94.62 1.54 1.58 1.54.9 0 1.64-.46 2.3-1.42zM60.85 15h-2.24c.08-1.1.1-1.86.1-3.58V.38h2.34v5.7c.8-1.02 1.74-1.5 2.96-1.5 2.5 0 4.12 2.1 4.12 5.3 0 1.64-.44 3.02-1.22 4-.74.92-1.64 1.34-2.9 1.34-1.34 0-2.18-.46-3.08-1.68L60.85 15zm.2-6.92v3.6c.72 1.18 1.48 1.74 2.4 1.74 1.36 0 2.26-1.4 2.26-3.56 0-2.14-.9-3.48-2.3-3.48-.92 0-1.74.6-2.36 1.7zM70.644 15V4.8h2.34V15h-2.34zM71.804.04c.84 0 1.44.62 1.44 1.46s-.6 1.46-1.44 1.46-1.44-.6-1.44-1.48c0-.82.62-1.44 1.44-1.44zM76.269 15V.38h2.34V15h-2.34zm5.625 0V4.8h2.34V15h-2.34zM83.054.04c.84 0 1.44.62 1.44 1.46s-.6 1.46-1.44 1.46-1.44-.6-1.44-1.48c0-.82.62-1.44 1.44-1.44zm5.005 6.54h-1.64V4.8h1.64V2.58l2.34-.44V4.8h2.32v1.78H90.4v4.74c0 1.5.34 2.02 1.36 2.02.34 0 .6-.06 1.1-.24l.22 1.78c-.74.24-1.38.34-2.08.34-1.16 0-1.98-.36-2.44-1.06-.36-.54-.5-1.3-.5-2.72V6.58zm9.501 8.26L93.46 4.8h2.48l2.04 5.16c.38.92.54 1.4.86 2.34.4-1.2.44-1.3.86-2.44l1.92-5.06h2.28l-4.12 10.42c-1.38 3.46-2.22 4.32-4.3 4.32-.68 0-1.22-.1-2.04-.36l.4-1.82c.54.22.86.3 1.28.3 1.08 0 1.7-.72 2.44-2.82zm8.386-2.74c.88 0 1.54.66 1.54 1.56s-.66 1.56-1.54 1.56c-.9 0-1.54-.66-1.54-1.58 0-.88.66-1.54 1.54-1.54zm5.762 0c.88 0 1.54.66 1.54 1.56s-.66 1.56-1.54 1.56c-.9 0-1.54-.66-1.54-1.58 0-.88.66-1.54 1.54-1.54zm5.762 0c.88 0 1.54.66 1.54 1.56s-.66 1.56-1.54 1.56c-.9 0-1.54-.66-1.54-1.58 0-.88.66-1.54 1.54-1.54z" fill="#fff"/></svg>