<svg width="137" height="44" viewBox="0 0 137 44" fill="none" xmlns="http://www.w3.org/2000/svg"><path d="M5.96 15V9.08L.88 1.16H3.7l2.56 4.06c.4.66.64 1.08.98 1.74.42-.78.7-1.28 1-1.76l2.54-4.04h2.66L8.38 9.08V15H5.96zM17.818 4.58c3.1 0 5 2.02 5 5.32 0 3.3-1.9 5.32-5 5.32-3.12 0-5-2.02-5-5.38 0-3.24 1.92-5.26 5-5.26zm0 1.78c-1.6 0-2.58 1.34-2.58 3.5 0 2.24.96 3.58 2.58 3.58 1.6 0 2.58-1.34 2.58-3.54s-.98-3.54-2.58-3.54zM34.195 4.8v6.62c0 1.58.02 2.4.1 3.58h-2.22l-.06-1.5c-1.2 1.26-2.18 1.72-3.56 1.72-1.28 0-2.26-.5-2.74-1.44-.32-.62-.44-1.38-.44-2.84V4.8h2.34v6.02c0 .94.04 1.34.2 1.72.22.56.72.88 1.4.88.9 0 1.84-.62 2.64-1.72V4.8h2.34zM37.523 15V8.64c0-1.22-.02-1.7-.06-3.38l-.02-.46h2.2l.06 1.92c.6-1.4 1.5-2.08 2.7-2.08.32 0 .52.02.9.12l-.14 2.06c-.36-.06-.52-.08-.8-.08-1.16 0-2.08.84-2.52 2.34V15h-2.32zm12.597 4.3V8.88c0-2.06-.02-2.94-.1-4.08h2.24l.08 1.4c.94-1.16 1.82-1.62 3.1-1.62 2.46 0 4.1 2.1 4.1 5.3 0 1.64-.44 3.02-1.22 4-.74.92-1.64 1.34-2.9 1.34-1.28 0-2.16-.44-2.96-1.52v5.6h-2.34zm2.34-11.24v3.62c.74 1.2 1.48 1.74 2.4 1.74 1.36 0 2.26-1.4 2.26-3.56 0-2.14-.9-3.48-2.3-3.48-.9 0-1.66.54-2.36 1.68zM62.074 15V.38h2.34V15h-2.34zm11.265 0l-.08-1.16c-.98 1-1.82 1.38-3.16 1.38-2.06 0-3.28-1.16-3.28-3.08 0-1.24.56-2.24 1.54-2.82.68-.38 1.66-.56 3.1-.56.4 0 .74.02 1.66.06v-.2c0-1.5-.78-2.32-2.26-2.32-.88 0-1.72.26-2.76.86l-.62-1.68c1.24-.62 2.36-.9 3.7-.9 1.6 0 2.84.46 3.52 1.34.58.72.76 1.5.76 3.44v3.04c.02 1.3.06 2.22.1 2.6h-2.22zm-.22-2.8v-1.92c-.46-.04-.7-.04-1.06-.04-1.92 0-2.82.58-2.82 1.84 0 .94.62 1.54 1.58 1.54.9 0 1.64-.46 2.3-1.42zm5.694 2.8V8.38c-.02-1.86-.02-2.04-.1-3.58h2.2l.08 1.5c1.24-1.28 2.18-1.72 3.6-1.72 1.3 0 2.28.5 2.78 1.44.32.6.46 1.38.46 2.84V15h-2.34V8.98c0-.9-.06-1.34-.2-1.72-.24-.56-.76-.88-1.46-.88-.92 0-1.86.6-2.68 1.72V15h-2.34zm12.785-8.42h-1.64V4.8h1.64V2.58l2.34-.44V4.8h2.32v1.78h-2.32v4.74c0 1.5.34 2.02 1.36 2.02.34 0 .6-.06 1.1-.24l.22 1.78c-.74.24-1.38.34-2.08.34-1.16 0-1.98-.36-2.44-1.06-.36-.54-.5-1.3-.5-2.72V6.58zm7.746-6.2h2.62l-2.02 5.14h-2.18l1.58-5.14zm3.689 14.04l.62-1.78c1.08.6 1.78.82 2.7.82 1.06 0 1.68-.48 1.68-1.3 0-.36-.14-.68-.4-.86-.26-.2-.52-.3-1.64-.7-1.22-.44-1.66-.66-2.12-1.06-.5-.46-.78-1.12-.78-1.88 0-1.9 1.44-3.08 3.76-3.08 1.12 0 2.14.22 3.32.74l-.6 1.78c-.86-.5-1.8-.78-2.62-.78-.96 0-1.56.44-1.56 1.16 0 .4.18.66.56.88.32.18.32.18 1.6.66 2.1.78 2.8 1.52 2.8 2.92 0 2-1.56 3.28-3.98 3.28-1.22 0-2.24-.24-3.34-.8zM8.98 24.38h2.34v11.04c0 1.6.02 2.62.1 3.58H9.16l-.08-1.46C8.2 38.76 7.36 39.22 6 39.22c-1.34 0-2.32-.5-3.08-1.58-.66-.96-1.02-2.26-1.02-3.76 0-3.2 1.62-5.3 4.1-5.3 1.22 0 2.18.48 2.98 1.5v-5.7zm0 11.3v-3.6c-.62-1.1-1.46-1.7-2.36-1.7-1.4 0-2.3 1.34-2.3 3.48 0 2.16.88 3.56 2.24 3.56.92 0 1.68-.54 2.42-1.74zM14.554 39V28.8h2.34V39h-2.34zm1.16-14.96c.84 0 1.44.62 1.44 1.46s-.6 1.46-1.44 1.46-1.44-.6-1.44-1.48c0-.82.62-1.44 1.44-1.44zM26.74 28.8h2.24l-.02.7c-.06 1.32-.08 2.14-.08 3.32v5.02c0 2.32-.18 3.2-.88 4.08-.84 1.04-2.3 1.6-4.18 1.6-1.48 0-2.74-.28-3.96-.9l.72-1.74c1.02.58 1.98.86 3.06.86 1.22 0 2.1-.44 2.54-1.28.26-.5.36-1.22.36-2.46v-.72c-.92 1.04-1.8 1.48-3.04 1.48-2.48 0-4.08-1.98-4.08-5.06 0-3.1 1.62-5.12 4.1-5.12 1.36 0 2.38.54 3.14 1.64l.08-1.42zm-.2 6.42v-2.96c-.52-1.18-1.44-1.88-2.46-1.88-1.38 0-2.24 1.3-2.24 3.36 0 1.96.9 3.22 2.28 3.22.96 0 1.86-.64 2.42-1.74zM32.172 39V28.8h2.34V39h-2.34zm1.16-14.96c.84 0 1.44.62 1.44 1.46s-.6 1.46-1.44 1.46-1.44-.6-1.44-1.48c0-.82.62-1.44 1.44-1.44zm5.006 6.54h-1.64V28.8h1.64v-2.22l2.34-.44v2.66h2.32v1.78h-2.32v4.74c0 1.5.34 2.02 1.36 2.02.34 0 .6-.06 1.1-.24l.22 1.78c-.74.24-1.38.34-2.08.34-1.16 0-1.98-.36-2.44-1.06-.36-.54-.5-1.3-.5-2.72v-4.86zM51.073 39l-.08-1.16c-.98 1-1.82 1.38-3.16 1.38-2.06 0-3.28-1.16-3.28-3.08 0-1.24.56-2.24 1.54-2.82.68-.38 1.66-.56 3.1-.56.4 0 .74.02 1.66.06v-.2c0-1.5-.78-2.32-2.26-2.32-.88 0-1.72.26-2.76.86l-.62-1.68c1.24-.62 2.36-.9 3.7-.9 1.6 0 2.84.46 3.52 1.34.58.72.76 1.5.76 3.44v3.04c.02 1.3.06 2.22.1 2.6h-2.22zm-.22-2.8v-1.92c-.46-.04-.7-.04-1.06-.04-1.92 0-2.82.58-2.82 1.84 0 .94.62 1.54 1.58 1.54.9 0 1.64-.46 2.3-1.42zm5.674 2.8V24.38h2.34V39h-2.34zm10.785-10.2h2.34v10.26c0 1.78-.14 2.6-.54 3.24-.54.8-1.44 1.22-2.7 1.22-.54 0-.98-.06-1.68-.22l.2-1.82c.52.14.72.18 1 .18 1 0 1.38-.64 1.38-2.26V28.8zm1.18-4.76c.84 0 1.44.62 1.44 1.46s-.6 1.46-1.44 1.46c-.86 0-1.46-.6-1.46-1.48 0-.82.62-1.44 1.46-1.44zm8.701 4.54c3.1 0 5 2.02 5 5.32 0 3.3-1.9 5.32-5 5.32-3.12 0-5-2.02-5-5.38 0-3.24 1.92-5.26 5-5.26zm0 1.78c-1.6 0-2.58 1.34-2.58 3.5 0 2.24.96 3.58 2.58 3.58 1.6 0 2.58-1.34 2.58-3.54s-.98-3.54-2.58-3.54zM93.57 28.8v6.62c0 1.58.02 2.4.1 3.58h-2.22l-.06-1.5c-1.2 1.26-2.18 1.72-3.56 1.72-1.28 0-2.26-.5-2.74-1.44-.32-.62-.44-1.38-.44-2.84V28.8h2.34v6.02c0 .94.04 1.34.2 1.72.22.56.72.88 1.4.88.9 0 1.84-.62 2.64-1.72v-6.9h2.34zM96.898 39v-6.36c0-1.22-.02-1.7-.06-3.38l-.02-.46h2.2l.06 1.92c.6-1.4 1.5-2.08 2.7-2.08.32 0 .52.02.9.12l-.14 2.06c-.36-.06-.52-.08-.8-.08-1.16 0-2.08.84-2.52 2.34V39h-2.32zm7.657 0v-6.62c-.02-1.86-.02-2.04-.1-3.58h2.2l.08 1.5c1.24-1.28 2.18-1.72 3.6-1.72 1.3 0 2.28.5 2.78 1.44.32.6.46 1.38.46 2.84V39h-2.34v-6.02c0-.9-.06-1.34-.2-1.72-.24-.56-.76-.88-1.46-.88-.92 0-1.86.6-2.68 1.72V39h-2.34zm21.066-4.36h-7.12c.18 1.92 1.12 2.82 2.94 2.82 1.02 0 2-.32 3.04-.98l.82 1.72c-1.22.7-2.44 1.02-3.92 1.02-3.42 0-5.34-1.9-5.34-5.3 0-3.32 1.86-5.34 4.88-5.34 2.12 0 3.58.88 4.2 2.5.36.94.48 1.8.5 3.56zm-7.12-1.64h4.72c-.04-1.72-.88-2.7-2.3-2.7s-2.34 1.02-2.42 2.7zm11.895 5.84l-4.1-10.04h2.48l2.04 5.16c.38.92.54 1.4.86 2.34.4-1.2.44-1.3.86-2.44l1.92-5.06h2.28l-4.12 10.42c-1.38 3.46-2.22 4.32-4.3 4.32-.68 0-1.22-.1-2.04-.36l.4-1.82c.54.22.86.3 1.28.3 1.08 0 1.7-.72 2.44-2.82z" fill="#fff"/></svg>