<svg width="152" height="44" viewBox="0 0 152 44" fill="none" xmlns="http://www.w3.org/2000/svg"><path d="M6.42.94c2.1 0 3.66.68 4.8 2.1 1.06 1.32 1.62 3.04 1.62 5.04 0 2.16-.66 4.04-1.92 5.38-1.1 1.18-2.58 1.76-4.5 1.76-2.1 0-3.66-.68-4.8-2.1C.54 11.78 0 10.08 0 8s.7-4 1.92-5.3C3.02 1.52 4.5.94 6.42.94zm0 1.96c-2.38 0-3.9 2-3.9 5.12 0 3.24 1.48 5.24 3.9 5.24 2.4 0 3.9-2 3.9-5.18 0-3.18-1.5-5.18-3.9-5.18zM15.504 15V8.38c-.02-1.88-.02-2-.1-3.58h2.2l.08 1.5c1.14-1.26 2.06-1.72 3.36-1.72 1.42 0 2.34.62 2.78 1.86 1.2-1.38 2.08-1.86 3.44-1.86 1.22 0 2.16.5 2.62 1.44.32.62.44 1.38.44 2.84V15h-2.34V8.98c0-.92-.06-1.34-.18-1.72-.2-.56-.68-.88-1.32-.88-.82 0-1.64.58-2.4 1.72V15h-2.34V8.74c0-1.66-.44-2.36-1.44-2.36-.84 0-1.7.6-2.46 1.72V15h-2.34zm18.086 0V8.38c-.02-1.86-.02-2.04-.1-3.58h2.2l.08 1.5c1.24-1.28 2.18-1.72 3.6-1.72 1.3 0 2.28.5 2.78 1.44.32.6.46 1.38.46 2.84V15h-2.34V8.98c0-.9-.06-1.34-.2-1.72-.24-.56-.76-.88-1.46-.88-.92 0-1.86.6-2.68 1.72V15h-2.34zm12.226 0V4.8h2.34V15h-2.34zM46.976.04c.84 0 1.44.62 1.44 1.46s-.6 1.46-1.44 1.46-1.44-.6-1.44-1.48c0-.82.62-1.44 1.44-1.44zM53.88 15l-3.86-10.2h2.42l2.12 5.64c.26.7.56 1.58.76 2.24.18-.66.46-1.46.74-2.26l2.06-5.62h2.22L56.521 15h-2.64zm8.322 0V4.8h2.34V15h-2.34zM63.362.04c.84 0 1.44.62 1.44 1.46s-.6 1.46-1.44 1.46-1.44-.6-1.44-1.48c0-.82.62-1.44 1.44-1.44zm3.705 14.38l.62-1.78c1.08.6 1.78.82 2.7.82 1.06 0 1.68-.48 1.68-1.3 0-.36-.14-.68-.4-.86-.26-.2-.52-.3-1.64-.7-1.22-.44-1.66-.66-2.12-1.06-.5-.46-.78-1.12-.78-1.88 0-1.9 1.44-3.08 3.76-3.08 1.12 0 2.14.22 3.32.74l-.6 1.78c-.86-.5-1.8-.78-2.62-.78-.96 0-1.56.44-1.56 1.16 0 .4.18.66.56.88.32.18.32.18 1.6.66 2.1.78 2.8 1.52 2.8 2.92 0 2-1.56 3.28-3.98 3.28-1.22 0-2.24-.24-3.34-.8zm18.681-3.78h-7.12c.18 1.92 1.12 2.82 2.94 2.82 1.02 0 2-.32 3.04-.98l.82 1.72c-1.22.7-2.44 1.02-3.92 1.02-3.42 0-5.34-1.9-5.34-5.3 0-3.32 1.86-5.34 4.88-5.34 2.12 0 3.58.88 4.2 2.5.36.94.48 1.8.5 3.56zM78.63 9h4.72c-.04-1.72-.88-2.7-2.3-2.7S78.71 7.32 78.63 9zM.72 39V25.16H4.2c2.66 0 4.14.38 5.36 1.36 1.44 1.16 2.18 3.04 2.18 5.54 0 2.72-.88 4.76-2.56 5.88C8 38.72 6.64 39 4 39H.72zm2.42-1.96h.96c1.54 0 2.66-.26 3.4-.78 1.1-.76 1.72-2.3 1.72-4.18s-.6-3.42-1.66-4.22c-.8-.58-1.54-.74-3.56-.74h-.86v9.92zM14.35 39V28.8h2.34V39h-2.34zm1.16-14.96c.84 0 1.44.62 1.44 1.46s-.6 1.46-1.44 1.46-1.44-.6-1.44-1.48c0-.82.62-1.44 1.44-1.44zm11.026 4.76h2.24l-.02.7c-.06 1.32-.08 2.14-.08 3.32v5.02c0 2.32-.18 3.2-.88 4.08-.84 1.04-2.3 1.6-4.18 1.6-1.48 0-2.74-.28-3.96-.9l.72-1.74c1.02.58 1.98.86 3.06.86 1.22 0 2.1-.44 2.54-1.28.26-.5.36-1.22.36-2.46v-.72c-.92 1.04-1.8 1.48-3.04 1.48-2.48 0-4.08-1.98-4.08-5.06 0-3.1 1.62-5.12 4.1-5.12 1.36 0 2.38.54 3.14 1.64l.08-1.42zm-.2 6.42v-2.96c-.52-1.18-1.44-1.88-2.46-1.88-1.38 0-2.24 1.3-2.24 3.36 0 1.96.9 3.22 2.28 3.22.96 0 1.86-.64 2.42-1.74zM31.968 39V28.8h2.34V39h-2.34zm1.16-14.96c.84 0 1.44.62 1.44 1.46s-.6 1.46-1.44 1.46-1.44-.6-1.44-1.48c0-.82.62-1.44 1.44-1.44zm5.006 6.54h-1.64V28.8h1.64v-2.22l2.34-.44v2.66h2.32v1.78h-2.32v4.74c0 1.5.34 2.02 1.36 2.02.34 0 .6-.06 1.1-.24l.22 1.78c-.74.24-1.38.34-2.08.34-1.16 0-1.98-.36-2.44-1.06-.36-.54-.5-1.3-.5-2.72v-4.86zM50.87 39l-.08-1.16c-.98 1-1.82 1.38-3.16 1.38-2.06 0-3.28-1.16-3.28-3.08 0-1.24.56-2.24 1.54-2.82.68-.38 1.66-.56 3.1-.56.4 0 .74.02 1.66.06v-.2c0-1.5-.78-2.32-2.26-2.32-.88 0-1.72.26-2.76.86l-.62-1.68c1.24-.62 2.36-.9 3.7-.9 1.6 0 2.84.46 3.52 1.34.58.72.76 1.5.76 3.44v3.04c.02 1.3.06 2.22.1 2.6h-2.22zm-.22-2.8v-1.92c-.46-.04-.7-.04-1.06-.04-1.92 0-2.82.58-2.82 1.84 0 .94.62 1.54 1.58 1.54.9 0 1.64-.46 2.3-1.42zm5.674 2.8V24.38h2.34V39h-2.34zm10.045-.48l.32-2.12c1.66.64 2.62.86 3.72.86 1.48 0 2.4-.76 2.4-2 0-1.02-.38-1.36-2.68-2.34-1.64-.7-2.12-.94-2.68-1.38-.76-.62-1.14-1.46-1.14-2.54 0-2.5 1.76-4.06 4.62-4.06 1.22 0 2.32.2 3.88.7l-.48 2.06c-1.36-.58-2.32-.8-3.3-.8-1.34 0-2.2.68-2.2 1.74 0 .92.5 1.36 2.5 2.18 1.66.68 2.32 1.02 2.9 1.5.74.64 1.14 1.58 1.14 2.76 0 2.62-1.8 4.14-4.88 4.14-1.46 0-2.66-.2-4.12-.7zm15.855-9.94c3.1 0 5 2.02 5 5.32 0 3.3-1.9 5.32-5 5.32-3.12 0-5-2.02-5-5.38 0-3.24 1.92-5.26 5-5.26zm0 1.78c-1.6 0-2.58 1.34-2.58 3.5 0 2.24.96 3.58 2.58 3.58 1.6 0 2.58-1.34 2.58-3.54s-.98-3.54-2.58-3.54zM89.762 39V24.38h2.34V39h-2.34zm14.484-10.2v6.62c0 1.58.02 2.4.1 3.58h-2.22l-.06-1.5c-1.2 1.26-2.18 1.72-3.56 1.72-1.28 0-2.26-.5-2.74-1.44-.32-.62-.44-1.38-.44-2.84V28.8h2.34v6.02c0 .94.04 1.34.2 1.72.22.56.72.88 1.4.88.9 0 1.84-.62 2.64-1.72v-6.9h2.34zm3.868 1.78h-1.64V28.8h1.64v-2.22l2.34-.44v2.66h2.32v1.78h-2.32v4.74c0 1.5.34 2.02 1.36 2.02.34 0 .6-.06 1.1-.24l.22 1.78c-.74.24-1.38.34-2.08.34-1.16 0-1.98-.36-2.44-1.06-.36-.54-.5-1.3-.5-2.72v-4.86zm6.901 8.42V28.8h2.34V39h-2.34zm1.16-14.96c.84 0 1.44.62 1.44 1.46s-.6 1.46-1.44 1.46-1.44-.6-1.44-1.48c0-.82.62-1.44 1.44-1.44zm8.705 4.54c3.1 0 5 2.02 5 5.32 0 3.3-1.9 5.32-5 5.32-3.12 0-5-2.02-5-5.38 0-3.24 1.92-5.26 5-5.26zm0 1.78c-1.6 0-2.58 1.34-2.58 3.5 0 2.24.96 3.58 2.58 3.58 1.6 0 2.58-1.34 2.58-3.54s-.98-3.54-2.58-3.54zm7.558 8.64v-6.62c-.02-1.86-.02-2.04-.1-3.58h2.2l.08 1.5c1.24-1.28 2.18-1.72 3.6-1.72 1.3 0 2.28.5 2.78 1.44.32.6.46 1.38.46 2.84V39h-2.34v-6.02c0-.9-.06-1.34-.2-1.72-.24-.56-.76-.88-1.46-.88-.92 0-1.86.6-2.68 1.72V39h-2.34zm11.485-.58l.62-1.78c1.08.6 1.78.82 2.7.82 1.06 0 1.68-.48 1.68-1.3 0-.36-.14-.68-.4-.86-.26-.2-.52-.3-1.64-.7-1.22-.44-1.66-.66-2.12-1.06-.5-.46-.78-1.12-.78-1.88 0-1.9 1.44-3.08 3.76-3.08 1.12 0 2.14.22 3.32.74l-.6 1.78c-.86-.5-1.8-.78-2.62-.78-.96 0-1.56.44-1.56 1.16 0 .4.18.66.56.88.32.18.32.18 1.6.66 2.1.78 2.8 1.52 2.8 2.92 0 2-1.56 3.28-3.98 3.28-1.22 0-2.24-.24-3.34-.8z" fill="#fff"/></svg>