<svg width="207" height="160" viewBox="0 0 207 160" fill="none" xmlns="http://www.w3.org/2000/svg"><g opacity=".6"><path d="M63.625 61.68L1.009 25.338c-1.347-.784-1.345-2.727.005-3.506l16.211-9.347a2.034 2.034 0 012.036.002l62.616 36.344c1.347.784 1.345 2.728-.005 3.509L65.66 61.687a2.034 2.034 0 01-2.035-.002" fill="#4D217A"/><path d="M41.153 44.26L11.06 26.792l-.025-8.978L41.127 35.28l.026 8.978z" fill="#4D217A"/><path d="M41.127 35.28L11.035 17.816l4.16-6.595L45.29 28.686l-4.162 6.595z" fill="#4D217A"/><path d="M45.29 28.686L15.197 11.22l-.016-4.585 30.092 17.466.015 4.585zM45.274 24.101L15.182 6.635 26.692 0l30.09 17.466-11.508 6.635z" fill="#4D217A"/><path d="M56.783 17.466l.025 8.773.023 7.604.003 1.374-15.681 9.042-.026-8.978 4.16-6.595-.013-4.585 11.509-6.635zM49.959 18.321l-5.887-3.417-.005-2.053 5.886 3.417.006 2.053zM49.953 16.268l-5.886-3.417 1.788-1.033 5.89 3.417-1.791 1.033z" fill="#4D217A"/><path d="M51.744 15.235l.005 2.056-1.79 1.03-.006-2.053 1.79-1.033zM45.108 21.193l-5.886-3.42-.005-2.052 5.886 3.417.005 2.055zM45.103 19.138l-5.886-3.417 1.788-1.03 5.89 3.416-1.792 1.03z" fill="#4D217A"/><path d="M46.894 18.107l.005 2.054-1.79 1.033-.006-2.056 1.79-1.03zM40.908 13.116l-5.887-3.42-.008-2.053 5.89 3.417.005 2.056z" fill="#4D217A"/><path d="M40.903 11.06l-5.89-3.417 1.791-1.033 5.887 3.42-1.788 1.03z" fill="#4D217A"/><path d="M42.69 10.03l.008 2.053-1.79 1.033-.008-2.056 1.79-1.03zM36.058 15.985l-5.89-3.417-.005-2.053 5.887 3.417.008 2.053z" fill="#4D217A"/><path d="M36.05 13.932l-5.887-3.417 1.791-1.033 5.887 3.417-1.79 1.033z" fill="#4D217A"/><path d="M37.84 12.9l.005 2.053-1.787 1.033-.008-2.054 1.79-1.033zM31.855 7.907l-5.887-3.416-.005-2.054 5.887 3.417.005 2.053z" fill="#4D217A"/><path d="M31.85 5.854l-5.887-3.417 1.788-1.033 5.89 3.417-1.791 1.033z" fill="#4D217A"/><path d="M33.64 4.821l.005 2.054-1.79 1.033-.005-2.054 1.79-1.033zM27.005 10.777L21.118 7.36l-.005-2.053L27 8.724l.005 2.053z" fill="#4D217A"/><path d="M27 8.724l-5.887-3.417L22.9 4.274l5.89 3.417L27 8.724z" fill="#4D217A"/><path d="M28.787 7.691l.008 2.056-1.79 1.03L27 8.725l1.787-1.033zM19.686 11.462l-.003.83-3.01-1.736.002-.83 3.011 1.736zM25.874 15.031l-.003.83-2.998-1.73.002-.83 2.999 1.73zM32.071 18.603l-.002.832-2.999-1.73.003-.83 2.998 1.728zM38.269 22.178v.832l-3.011-1.738.002-.83 3.009 1.736zM44.456 25.748l-.002.829-2.998-1.73.002-.83 2.998 1.73zM12.12 27.562l2.999 1.73.02-7.142-2.998-1.73-.02 7.142zM18.318 31.136l2.998 1.73.02-7.141-2.997-1.73-.02 7.141zM24.506 34.703l3.01 1.738.021-7.142-3.01-1.737-.021 7.141zM30.703 38.278l2.999 1.73.02-7.142-2.998-1.73-.02 7.142zM36.924 34.71l-.02 7.142 2.998 1.73.02-7.141-2.998-1.73zM56.678 22.511l-.07 14.823c0 .221-.149.44-.442.61-.588.341-1.536.344-2.127 0-.29-.165-.435-.386-.433-.608l.072-14.822c0 .221.145.442.433.608.593.34 1.538.34 2.127 0 .293-.17.438-.392.44-.61z" fill="#4D217A"/><path d="M56.23 21.893c.594.341.596.888.008 1.232-.589.34-1.536.343-2.127 0-.578-.334-.581-.88.007-1.224.589-.344 1.536-.344 2.115-.008" fill="#4D217A"/><path d="M56.09 21.906c.531.308.534.799.017 1.1-.53.307-1.38.307-1.912 0-.533-.309-.535-.8-.005-1.108.516-.3 1.367-.3 1.902.008" fill="#4D217A"/><path d="M56.66 23.231v.387h-.015c.041.255-.086.514-.418.705-.603.348-1.558.348-2.165 0-.349-.201-.466-.47-.405-.736v-.394c-.392.39-.318.89.252 1.219.69.4 1.789.4 2.474 0 .548-.318.632-.8.278-1.183M56.66 25.14v.386h-.015c.041.255-.086.514-.418.705-.603.348-1.558.348-2.165 0-.349-.201-.466-.47-.405-.735V25.1c-.392.39-.318.888.252 1.219.69.4 1.789.4 2.474 0 .548-.318.632-.799.278-1.183M56.66 27.05v.387h-.015c.041.254-.086.514-.418.705-.603.348-1.558.348-2.165 0-.349-.201-.466-.474-.405-.736v-.394c-.392.39-.318.89.252 1.219.69.4 1.789.4 2.474 0 .548-.318.632-.8.278-1.183M56.66 28.961v.387h-.015c.041.254-.086.514-.418.704-.603.349-1.558.349-2.165 0-.349-.2-.466-.47-.405-.735v-.394c-.392.39-.318.89.252 1.219.69.399 1.789.399 2.474 0 .548-.319.632-.8.278-1.184M56.66 30.872v.386h-.015c.041.255-.086.514-.418.705-.603.349-1.558.349-2.165 0-.349-.2-.466-.47-.405-.735v-.395c-.392.39-.318.888.252 1.22.69.399 1.789.399 2.474 0 .548-.319.632-.8.278-1.184M56.66 32.782v.387h-.015c.041.255-.086.514-.418.705-.603.348-1.558.348-2.165 0-.349-.201-.466-.47-.405-.735v-.395c-.392.39-.318.89.252 1.219.69.4 1.789.4 2.474 0 .548-.318.632-.799.278-1.183M56.66 34.693v.387h-.015c.041.254-.086.514-.418.705-.603.348-1.558.348-2.165 0-.349-.201-.466-.471-.405-.736v-.394c-.392.39-.318.888.252 1.219.69.399 1.789.399 2.474 0 .548-.318.632-.8.278-1.184" fill="#4D217A"/><path d="M59.035 33.803l-5.248-.7-4.577 2.659 6.633.883 3.192-2.842zM69.93 36.927l-.046 15.522 4.58-2.658.043-15.52-4.577 2.656z" fill="#4D217A"/><path d="M74.507 34.27l-8.717-5.062-4.58 2.656 8.72 5.063 4.577-2.656z" fill="#4D217A"/><path d="M61.21 31.864l-2.175 1.939-3.192 2.842-6.633-.883-.016 4.72 20.69 11.967.046-15.522-8.72-5.063zM69.927 31.396l-4.216 2.447-4.254-2.455 4.214-2.447 4.256 2.455zM48.952 26.877L48.881 41.7c0 .221-.148.443-.44.61-.59.344-1.537.344-2.128 0-.29-.165-.435-.386-.433-.608l.072-14.822c0 .221.145.443.433.608.593.34 1.538.34 2.127 0 .293-.17.438-.392.44-.61z" fill="#4D217A"/><path d="M48.507 26.259c.593.34.596.888.007 1.231-.588.341-1.536.341-2.127 0-.578-.333-.58-.88.008-1.223.588-.341 1.536-.341 2.114-.008" fill="#4D217A"/><path d="M48.373 26.27c.522.3.525.793-.005 1.098-.53.308-1.38.308-1.902.008-.535-.308-.537-.799-.008-1.107.53-.308 1.38-.308 1.913 0" fill="#4D217A"/><path d="M48.934 27.597v.387h-.015c.041.254-.086.514-.417.705-.604.348-1.56.348-2.166 0-.349-.201-.466-.471-.405-.736v-.394c-.392.39-.318.89.252 1.219.69.4 1.789.4 2.474 0 .548-.318.632-.8.278-1.183M48.934 29.505v.387h-.015c.041.255-.086.514-.417.705-.604.348-1.56.348-2.166 0-.349-.201-.466-.47-.405-.735v-.395c-.392.39-.318.888.252 1.219.69.4 1.789.4 2.474 0 .548-.318.632-.799.278-1.183M48.934 31.416v.387h-.015c.041.254-.086.514-.417.705-.604.348-1.56.348-2.166 0-.349-.201-.466-.471-.405-.736v-.394c-.392.39-.318.89.252 1.219.69.4 1.789.4 2.474 0 .548-.318.632-.8.278-1.184M48.934 33.327v.387h-.015c.041.254-.086.514-.417.704-.604.349-1.56.349-2.166 0-.349-.2-.466-.47-.405-.735v-.394c-.392.389-.318.888.252 1.218.69.4 1.789.4 2.474 0 .548-.318.632-.798.278-1.183M48.934 35.237v.387h-.015c.041.255-.086.514-.417.705-.604.349-1.56.349-2.166 0-.349-.201-.466-.47-.405-.735v-.395c-.392.39-.318.89.252 1.219.69.4 1.789.4 2.474 0 .548-.318.632-.799.278-1.183M48.934 37.148v.387h-.015c.041.254-.086.514-.417.705-.604.348-1.56.348-2.166 0-.349-.201-.466-.471-.405-.736v-.394c-.392.39-.318.888.252 1.219.69.4 1.789.4 2.474 0 .548-.318.632-.8.278-1.183M48.934 39.059v.387h-.015c.041.254-.086.514-.417.704-.604.352-1.56.352-2.166 0-.349-.2-.466-.47-.405-.735v-.394c-.392.39-.318.888.252 1.218.69.4 1.789.4 2.474 0 .548-.317.632-.798.278-1.183" fill="#4D217A"/><path d="M48.621 43.417v-7.905l5.085-2.575.165.334-4.88 2.47v7.076l2.246-1.12.168.331-2.784 1.39zM54.37 46.648v-11.35l3.692-1.885.17.331-3.492 1.781v10.523l2.247-1.122.165.33-2.782 1.392zM58.782 46.707h-.369v-13.92l2.703-1.406.17.328-2.504 1.302v13.696zM62.463 49.218h-.369v-13.92l2.794-1.406.169.33-2.594 1.303v13.693z" fill="#4D217A"/><path d="M62.993 51.67V37.447l4.6-2.033.151.339-4.381 1.933v13.388l2.246-1.122.169.33-2.785 1.39zM69.527 31.093l-.002.605-3.852-2.22v-.606l3.854 2.221zM65.673 28.872v.605l-3.829 2.221.003-.605 3.826-2.221z" fill="#4D217A"/><path d="M65.701 33.764v.606l-4.636-2.671.003-.606 4.633 2.671z" fill="#4D217A"/><path d="M70.317 31.085v.606L65.7 34.37v-.606l4.616-2.679z" fill="#4D217A"/><path d="M65.683 28.414l4.634 2.671-4.616 2.68-4.634-2.672 4.616-2.68zm.015 4.9l3.827-2.221-3.852-2.221-3.826 2.221 3.851 2.221z" fill="#4D217A"/><path d="M76.298 20.606l-.143 32.235c0 .448-.298.896-.894 1.242-1.194.694-3.115.694-4.317 0-.586-.339-.882-.786-.882-1.234l.143-32.236c0 .448.293.896.881 1.234 1.203.695 3.123.695 4.318 0 .593-.343.891-.791.891-1.241" fill="#4D217A"/><path d="M75.391 19.346c1.202.695 1.21 1.804.013 2.499-1.195.694-3.115.694-4.318 0-1.174-.677-1.18-1.786.015-2.48 1.195-.695 3.116-.695 4.288-.019" fill="#4D217A"/><path d="M75.108 19.374c1.068.616 1.073 1.613 0 2.234-1.06.616-2.784.616-3.851 0-1.08-.62-1.085-1.62-.026-2.234 1.073-.62 2.797-.62 3.875 0M76.278 24.9l-.006 1.044-.005.982c-.142.29-.397.567-.79.796-1.23.715-3.23.72-4.467.008-.43-.247-.7-.553-.833-.87v-.87l.007-1.102c-1.32.875-1.314 2.17-.012 3.053.074.048.132.104.214.15 1.582.91 4.152.918 5.734 0 .053-.033.094-.069.145-.102 1.358-.883 1.35-2.206.013-3.089zM76.278 33.065l-.006 1.043-.005.982c-.142.29-.397.567-.79.796-1.23.715-3.23.72-4.467.008-.43-.247-.7-.55-.833-.87v-.868l.007-1.101c-1.32.875-1.314 2.17-.012 3.055.074.049.132.102.214.15 1.582.911 4.152.919 5.734 0 .053-.033.094-.068.145-.101 1.358-.883 1.35-2.206.013-3.09M62.132 35.395l.01.02-.081-.045-.415.046-2.326-1.341-.413-.524-.142.19.2.252-.004 1.7-.201.02.023.056-.085.046.008-2.244.13-.074 3.296 1.898zM62.178 39.934l.071.176-.007 2.244-.072-.178-.048-.028-.013-.02-.468-.273-1.175-1.48-1.18.124-.47-.272-.049.028-.023-.056.202-.02 1.258-.133-1.253-1.58-.202-.254.143-.176.418.527 1.156 1.455 1.16-.122.42-.043.081.048.048.028.003.005zm-.196 1.997l.005-1.714-1.258.132 1.253 1.58" fill="#4D217A"/><path d="M62.186 37.688l.071.175-.008 2.244-.07-.178-.047-.028-.012-.02-.47-.273-1.173-1.48-1.18.124-.471-.272-.049.028-.023-.056.202-.02 1.258-.132-1.253-1.58-.201-.255.142-.175.418.526 1.157 1.458 1.159-.122.42-.043.081.048.049.028v.003zm-.196 2l.005-1.715-1.259.132 1.254 1.58M62.17 42.178l.072.176-.008 2.244-.071.081-.059-.008-.071-.068-.418-.527-1.156-1.455-1.16.122-.42.043-.142-.34.2-.021 1.26-.132-1.254-1.58-.201-.255.142-.175.418.526 1.157 1.456 1.159-.123.42-.043.082.049.048.028.002.002zm-.193 1.997l.005-1.712-1.258.132 1.253 1.58z" fill="#4D217A"/><path d="M62.112 42.13l.013.02-.084-.048-.42.043-2.314-1.333-.418-.53-.145.179.202.254-.003 1.71-.204.02.143.341.42-.043 2.313 1.333.418.53.071.068-3.294-1.9-.13-.227.006-2.244.084-.046.048-.028.469.273 2.356 1.356.469.272z" fill="#4D217A"/><path d="M62.12 39.886l.01.02-.082-.048-.42.043-2.316-1.333-.417-.53-.143.179.201.252-.005 1.712-.201.02.023.056-.084.046.007-2.244.082-.046.048-.028.471.273 2.354 1.356.471.272z" fill="#4D217A"/><path d="M62.125 37.642l.012.02-.084-.048-.42.043-2.313-1.333-.418-.53-.145.179.201.252-.002 1.712-.204.02.023.056-.082.046.006-2.244.084-.046.048-.028.469.27 2.356 1.359.469.272z" fill="#4D217A"/><path d="M62.19 35.444l.072.178-.008 2.244-.07-.176-.05-.028-.012-.02-.469-.27-1.174-1.48-1.18.124-.47-.272-.05.028-.022-.056.201-.02 1.259-.133-1.254-1.567-.2-.252.142-.19.412.523 1.162 1.473 1.164-.132.415-.046.082.049.048.028.003-.005zm-.195 2l.005-1.7-1.259.12 1.254 1.58zM179.197 68.228l-3.258-1.979.01-.005-35.135-20.395-16.242 9.256-9.995-5.762-33.872 19.661-10.831-6.286-17.113 9.866c-1.404.81-1.407 2.832-.006 3.644l57.855 33.581a11.31 11.31 0 0011.326.015l2.573-1.483a15.938 15.938 0 0116.239.186 5.528 5.528 0 005.624.066l32.571-18.744c8.283-4.767 8.426-16.66.257-21.62m-87.85 6.953l5.737-3.33a12.922 12.922 0 0112.973 0l27.634 16.038-12.276 7.063L91.35 75.18v.003z" fill="#4D217A"/><path d="M137.806 54.296V34.813h-7.953v19.483c0 .588.387 1.173 1.164 1.623 1.557.896 4.068.896 5.627 0 .775-.45 1.162-1.035 1.162-1.623z" fill="#4D217A"/><path d="M137.717 34.342l-1.068-2.16h-5.65l-1.075 2.185c-.249.726.112 1.507 1.085 2.066 1.554.896 4.069.896 5.628 0 .98-.57 1.339-1.358 1.074-2.091" fill="#4D217A"/><path d="M135.885 33.764c-1.136.654-2.975.654-4.111 0-1.134-.656-1.134-1.717 0-2.368 1.136-.657 2.975-.657 4.111 0 1.136.654 1.136 1.715 0 2.368z" fill="#4D217A"/><path d="M133.035 32.587v-.596h1.589v.596c0 .117-.077.234-.232.325-.311.18-.815.18-1.126 0-.152-.089-.231-.208-.231-.325z" fill="#4D217A"/><path d="M133.266 32.314c.311.178.815.178 1.126 0 .311-.18.311-.468 0-.649-.311-.18-.815-.18-1.126 0-.31.181-.31.469 0 .65zM138.29 54.075v-.595h1.589v.595c0 .117-.077.234-.232.326-.311.18-.812.18-1.126 0-.152-.09-.231-.209-.231-.326z" fill="#4D217A"/><path d="M138.521 53.8c.311.178.815.178 1.126 0 .311-.18.311-.468 0-.649-.311-.18-.812-.18-1.126 0-.31.181-.31.469 0 .65z" fill="#4D217A"/><path d="M139.064 53.737a.438.438 0 01-.438-.438V29.671a2.187 2.187 0 00-2.186-2.183c-1.204 0-2.185.98-2.185 2.183v2.117a.438.438 0 01-.876 0V29.67a3.062 3.062 0 013.059-3.056 3.062 3.062 0 013.059 3.056v23.628a.438.438 0 01-.438.438M148.352 60.37V40.885h-7.953v19.483c0 .588.387 1.173 1.164 1.624 1.556.895 4.068.895 5.627 0 .774-.45 1.162-1.036 1.162-1.624z" fill="#4D217A"/><path d="M148.263 40.415l-1.068-2.16h-5.65l-1.075 2.185c-.249.726.112 1.507 1.085 2.066 1.554.896 4.068.896 5.627 0 .981-.57 1.34-1.358 1.075-2.091" fill="#4D217A"/><path d="M146.428 39.837c-1.136.654-2.975.654-4.111 0-1.134-.656-1.134-1.717 0-2.368 1.136-.657 2.975-.657 4.111 0 1.137.654 1.137 1.715 0 2.368z" fill="#4D217A"/><path d="M143.581 38.66v-.596h1.589v.596c0 .117-.077.234-.232.325-.311.181-.813.181-1.126 0-.153-.089-.231-.208-.231-.325z" fill="#4D217A"/><path d="M143.812 38.387c.311.178.815.178 1.126 0 .31-.18.31-.468 0-.648-.311-.181-.812-.181-1.126 0-.31.18-.31.468 0 .648zM148.833 60.148v-.595h1.589v.595c0 .117-.076.234-.232.326-.31.18-.812.18-1.125 0-.153-.09-.232-.209-.232-.326z" fill="#4D217A"/><path d="M149.065 59.876c.311.178.815.178 1.125 0 .311-.18.311-.468 0-.649-.31-.18-.812-.18-1.125 0-.311.18-.311.468 0 .649z" fill="#4D217A"/><path d="M149.61 59.81a.438.438 0 01-.438-.438V35.744a2.186 2.186 0 00-4.371 0v2.12a.438.438 0 01-.877 0v-2.12a3.062 3.062 0 013.06-3.056 3.062 3.062 0 013.059 3.056v23.628a.437.437 0 01-.435.438M158.895 66.369V46.885h-7.953v19.484c0 .587.387 1.173 1.164 1.623 1.557.895 4.069.895 5.627 0 .775-.45 1.162-1.036 1.162-1.623z" fill="#4D217A"/><path d="M158.808 46.414l-1.067-2.16h-5.65l-1.075 2.183c-.249.725.112 1.506 1.085 2.066 1.554.896 4.068.896 5.627 0 .981-.57 1.34-1.358 1.075-2.091" fill="#4D217A"/><path d="M156.974 45.837c-1.136.654-2.975.654-4.111 0-1.134-.657-1.134-1.718 0-2.369 1.136-.656 2.975-.656 4.111 0 1.137.654 1.137 1.715 0 2.369z" fill="#4D217A"/><path d="M154.124 44.661v-.598h1.589v.598c0 .117-.076.234-.232.326-.31.18-.812.18-1.125 0-.153-.089-.232-.209-.232-.326z" fill="#4D217A"/><path d="M154.356 44.387c.31.178.815.178 1.125 0 .311-.181.311-.468 0-.65-.31-.18-.812-.18-1.125 0-.311.181-.311.469 0 .65zM159.379 66.147v-.595h1.589v.595c0 .117-.076.234-.232.326-.31.18-.815.18-1.125 0-.153-.089-.232-.209-.232-.326z" fill="#4D217A"/><path d="M159.611 65.875c.31.178.815.178 1.125 0 .311-.18.311-.468 0-.649-.31-.18-.815-.18-1.125 0-.311.181-.311.469 0 .65z" fill="#4D217A"/><path d="M160.156 65.809a.437.437 0 01-.438-.435V41.746a2.187 2.187 0 00-4.371 0v2.116a.438.438 0 01-.877 0v-2.116a3.062 3.062 0 013.06-3.056 3.062 3.062 0 013.059 3.056v23.628a.436.436 0 01-.438.435M112.297 11.543l-.166 47.374c0 .514-.341 1.025-1.021 1.42-1.368.793-3.567.793-4.945 0-.672-.387-1.008-.899-1.008-1.413l.165-47.373c0 .514.336 1.025 1.009 1.412 1.378.794 3.574.794 4.944 0 .68-.394 1.022-.908 1.022-1.42z" fill="#4D217A"/><path d="M111.258 10.103c1.378.794 1.385 2.066.015 2.86-1.368.794-3.566.794-4.945 0-1.342-.774-1.35-2.046.018-2.84 1.368-.793 3.567-.793 4.909-.02" fill="#4D217A"/><path d="M110.929 10.136c1.238.715 1.246 1.857.043 2.557-1.23.715-3.207.715-4.445 0-1.238-.715-1.246-1.857-.015-2.572 1.202-.7 3.179-.7 4.419.015M112.256 17.65v.9h-.038c.094.59-.201 1.193-.968 1.638-1.401.812-3.62.812-5.031 0-.808-.465-1.085-1.096-.943-1.707v-.916c-.907.906-.738 2.066.584 2.83 1.604.926 4.152.926 5.746 0 1.274-.74 1.468-1.853.647-2.748M112.256 26.526v.9h-.038c.094.591-.201 1.194-.968 1.64-1.401.81-3.62.81-5.031 0-.808-.466-1.085-1.097-.943-1.708v-.916c-.907.906-.738 2.066.584 2.83 1.604.925 4.152.925 5.746 0 1.274-.741 1.468-1.853.647-2.748M112.256 30.963v.9h-.038c.094.591-.201 1.194-.968 1.64-1.401.811-3.62.811-5.031 0-.808-.466-1.085-1.097-.943-1.708v-.916c-.907.906-.738 2.066.584 2.83 1.604.926 4.152.926 5.746 0 1.274-.74 1.468-1.853.647-2.748M98.536 27.971l9.963-5.783-3.029-1.745-9.963 5.783 3.03 1.745z" fill="#4D217A"/><path d="M98.536 37.927l9.963-5.78-3.029-1.746-9.963 5.78 3.03 1.746zM119.083 52.714l-9.96-5.783 3.026-1.745 9.963 5.78-3.029 1.748zM119.083 60.738l-9.96-5.783 3.026-1.745 9.963 5.783-3.029 1.745z" fill="#4D217A"/><path d="M99.137 16.792l-.124 49.653c0 .392-.263.786-.783 1.086-1.047.608-2.73.608-3.785 0-.514-.297-.772-.69-.772-1.08l.128-49.654c0 .394.257.786.772 1.081 1.054.608 2.738.608 3.785 0 .522-.302.782-.694.782-1.089" fill="#4D217A"/><path d="M98.343 15.688c1.054.608 1.06 1.582.012 2.19-1.047.608-2.73.608-3.785 0-1.03-.593-1.034-1.567.013-2.175 1.05-.608 2.73-.608 3.76-.015z" fill="#4D217A"/><path d="M98.09 15.713c.948.547.953 1.422.03 1.957-.942.547-2.455.547-3.405 0-.948-.547-.953-1.423-.01-1.97.922-.534 2.435-.534 3.383.013" fill="#4D217A"/><path d="M99.107 18.07v.689h-.028c.074.452-.156.913-.742 1.254-1.072.623-2.774.623-3.851 0-.62-.356-.83-.84-.721-1.305v-.702c-.695.694-.566 1.582.448 2.167 1.23.71 3.182.71 4.402 0 .976-.567 1.123-1.42.494-2.104M99.107 21.468v.69h-.028c.074.452-.156.913-.742 1.254-1.072.623-2.774.623-3.851 0-.62-.356-.83-.84-.721-1.305v-.703c-.695.695-.566 1.583.448 2.168 1.23.71 3.182.71 4.402 0 .976-.567 1.123-1.42.494-2.104M99.107 24.867v.69h-.028c.074.453-.156.913-.742 1.254-1.072.623-2.774.623-3.851 0-.62-.356-.83-.84-.721-1.305v-.702c-.695.694-.566 1.582.448 2.167 1.23.71 3.182.71 4.402 0 .976-.567 1.123-1.42.494-2.104M99.107 28.266v.69h-.028c.074.453-.156.913-.742 1.254-1.072.623-2.774.623-3.851 0-.62-.356-.83-.84-.721-1.305v-.702c-.695.694-.566 1.582.448 2.167 1.23.71 3.182.71 4.402 0 .976-.567 1.123-1.42.494-2.104M99.107 31.665v.69h-.028c.074.453-.156.913-.742 1.254-1.072.621-2.774.621-3.851 0-.62-.356-.83-.84-.721-1.308v-.7c-.695.695-.566 1.583.448 2.169 1.23.71 3.182.71 4.402 0 .976-.568 1.123-1.42.494-2.105M99.107 35.065v.689h-.028c.074.453-.156.913-.742 1.254-1.072.621-2.774.621-3.851 0-.62-.356-.83-.84-.721-1.308V35c-.695.696-.566 1.583.448 2.169 1.23.71 3.182.71 4.402 0 .976-.568 1.123-1.42.494-2.104M99.107 38.464v.69h-.028c.074.45-.156.912-.742 1.253-1.072.624-2.774.624-3.851 0-.62-.356-.83-.84-.721-1.305V38.4c-.695.695-.566 1.583.448 2.168 1.23.71 3.182.71 4.402 0 .976-.565 1.123-1.42.494-2.104M116.676 44.033h.084c.234-.908.96 1.124 2.175.425 2.998-1.73 7.848-1.738 10.829-.02 1.22.702 1.938-1.324 2.155-.405h.069V64.36c.045 1.168-.709 2.346-2.257 3.239-2.999 1.73-7.849 1.738-10.829.02-1.483-.855-2.224-1.977-2.226-3.101V44.033z" fill="#4D217A"/><path d="M118.935 40.937c2.998-1.73 7.848-1.738 10.829-.02 2.98 1.72 2.965 4.513-.033 6.243-2.998 1.73-7.849 1.738-10.829.02-2.98-1.72-2.965-4.513.033-6.243z" fill="#4D217A"/><path d="M124.284 47.732c-1.979 0-3.953-.432-5.456-1.3-1.482-.855-2.298-2.002-2.298-3.229 0-1.239.828-2.399 2.334-3.266 3.034-1.75 7.958-1.758 10.974-.02 1.482.854 2.297 2.002 2.297 3.23 0 1.23-.828 2.4-2.333 3.267-1.523.878-3.523 1.318-5.518 1.318zM90.189 35.657l-.07 38.138c0 .214-.142.425-.422.588-.568.328-1.478.328-2.048 0-.278-.16-.418-.371-.418-.585L87.3 35.66c0 .214.14.425.418.585.57.328 1.48.328 2.048 0 .28-.163.422-.377.422-.588z" fill="#4D217A"/><path d="M89.757 35.06c.57.328.573.854.008 1.185-.568.329-1.477.329-2.048 0-.555-.32-.56-.847.008-1.178.568-.328 1.477-.328 2.032-.008z" fill="#4D217A"/><path d="M89.62 35.075c.514.295.517.77.017 1.058-.509.295-1.329.295-1.84 0-.515-.295-.517-.768-.006-1.066.5-.29 1.317-.29 1.831.008" fill="#4D217A"/><path d="M90.17 36.347v.374h-.015c.041.244-.084.493-.4.68-.58.335-1.5.335-2.083 0-.337-.194-.451-.456-.39-.708v-.38c-.377.377-.306.856.242 1.174.665.384 1.72.384 2.382 0 .527-.306.606-.769.267-1.138M90.17 40.026v.371h-.015c.041.245-.084.494-.4.68-.58.335-1.5.335-2.083 0-.337-.194-.451-.453-.39-.708v-.379c-.377.374-.306.855.242 1.173.665.384 1.72.384 2.382 0 .527-.305.606-.768.267-1.137M90.17 43.702v.374h-.015c.041.244-.084.494-.4.68-.58.335-1.5.335-2.083 0-.337-.194-.451-.456-.39-.708v-.379c-.377.377-.306.855.242 1.173.665.384 1.72.384 2.382 0 .527-.305.606-.768.267-1.137M90.17 47.379v.371h-.015c.041.244-.084.494-.4.68-.58.335-1.5.335-2.083 0-.337-.194-.451-.454-.39-.708v-.38c-.377.375-.306.856.242 1.174.665.384 1.72.384 2.382 0 .527-.305.606-.768.267-1.137M106.851 47.694l-.069 38.138c0 .214-.143.425-.423.588-.568.328-1.478.328-2.048 0-.278-.16-.418-.372-.418-.585l.069-38.138c0 .213.14.424.418.585.57.328 1.48.328 2.048 0 .282-.163.423-.377.423-.588z" fill="#4D217A"/><path d="M106.422 47.096c.57.328.573.855.007 1.186-.567.328-1.477.328-2.047 0-.555-.32-.56-.847.008-1.176.568-.328 1.477-.328 2.032-.007" fill="#4D217A"/><path d="M106.284 47.111c.515.298.517.771.018 1.059-.509.295-1.329.295-1.841 0-.514-.298-.517-.771-.005-1.066.499-.29 1.316-.29 1.831.007" fill="#4D217A"/><path d="M106.835 48.383v.372h-.015c.041.244-.084.494-.4.68-.581.335-1.5.335-2.084 0-.333-.194-.448-.456-.389-.708v-.38c-.377.377-.306.856.242 1.174.665.384 1.719.384 2.381 0 .528-.308.607-.769.268-1.138M106.835 52.063v.373h-.015c.041.245-.084.494-.4.68-.581.336-1.5.336-2.084 0-.333-.194-.448-.456-.389-.708v-.379c-.377.374-.306.855.242 1.173.665.385 1.719.385 2.381 0 .528-.305.607-.768.268-1.137M106.835 55.739v.371h-.015c.041.245-.084.494-.4.68-.581.336-1.5.336-2.084 0-.333-.194-.448-.456-.389-.708v-.379c-.377.377-.306.855.242 1.173.665.384 1.719.384 2.381 0 .528-.305.607-.768.268-1.137M106.835 59.415v.374h-.015c.041.245-.084.494-.4.68-.581.335-1.5.335-2.084 0-.333-.194-.448-.456-.389-.708v-.379c-.377.374-.306.855.242 1.173.665.384 1.719.384 2.381 0 .528-.305.607-.768.268-1.137" fill="#4D217A"/><path fill-rule="evenodd" clip-rule="evenodd" d="M79.472 67.77a.684.684 0 01-.336.082.684.684 0 01-.337-.082c-.091-.053-.14-.124-.14-.193V40.57c0-.247.056-.463.158-.638a.904.904 0 01.797-.463c.192 0 .4.056.61.178l3 1.73-.471.819-3.003-1.73a.302.302 0 00-.118-.046.377.377 0 00-.02.15v27.007c0 .069-.046.14-.14.194z" fill="#4D217A"/><path d="M82.888 69.681c-.357.206-.825.308-1.292.308-.466 0-.934-.104-1.291-.308-.357-.206-.535-.475-.535-.745V40.47c0-.27.178-.54.535-.745.356-.206.825-.308 1.291-.308.467 0 .935.102 1.292.307.356.207.535.476.535.746v28.465c0 .27-.178.54-.535.745z" fill="#4D217A"/><path d="M82.888 41.217c-.357.206-.825.307-1.292.307-.466 0-.934-.104-1.291-.307-.357-.207-.535-.476-.535-.746s.178-.54.535-.745c.356-.206.825-.308 1.291-.308.467 0 .935.102 1.292.307.356.207.535.476.535.746s-.178.54-.535.746zM83.303 46.679c-.471.272-1.088.407-1.707.407s-1.235-.137-1.706-.407c-.472-.272-.706-.629-.706-.985 0-.323.196-.649.586-.908v.908c0 .27.178.54.535.746.356.206.825.308 1.291.308.467 0 .935-.102 1.292-.308.356-.206.535-.476.535-.746v-.908c.39.26.586.585.586.908 0 .356-.235.713-.706.985zM83.303 52.442c-.471.272-1.088.407-1.707.407s-1.235-.138-1.706-.407c-.472-.273-.706-.629-.706-.985 0-.323.196-.649.586-.908v.908c0 .27.178.54.535.745.356.206.825.308 1.291.308.467 0 .935-.102 1.292-.308.356-.206.535-.475.535-.745v-.908c.39.26.586.585.586.908 0 .356-.235.712-.706.985zM83.303 58.204c-.471.273-1.088.407-1.707.407s-1.235-.137-1.706-.407c-.472-.272-.706-.628-.706-.984 0-.323.196-.65.586-.909v.909c0 .27.178.539.535.745.356.206.825.308 1.291.308.467 0 .935-.102 1.292-.308.356-.206.535-.476.535-.745v-.909c.39.26.586.586.586.909 0 .356-.235.712-.706.984zM83.303 63.967c-.471.272-1.088.407-1.707.407s-1.235-.137-1.706-.407c-.472-.272-.706-.628-.706-.985 0-.323.196-.648.586-.908v.908c0 .27.178.54.535.746.356.206.825.308 1.291.308.467 0 .935-.102 1.292-.308.356-.206.535-.476.535-.746v-.908c.39.26.586.585.586.908 0 .357-.235.713-.706.985z" fill="#4D217A"/><path fill-rule="evenodd" clip-rule="evenodd" d="M79.834 69.788V47.501a.5.5 0 01.252-.438l.089-.05c.104 0 .222.203.14.259l-.081.048a.196.196 0 00-.105.18v22.278c-.008.1-.295.112-.295.008M116.52 89.615a.683.683 0 01-.336.082.683.683 0 01-.336-.082c-.092-.053-.14-.124-.14-.193V62.415c0-.247.056-.463.158-.639a.907.907 0 01.797-.463c.193 0 .4.059.609.178l3 1.73-.471.82-3.001-1.73a.297.297 0 00-.117-.046.45.45 0 00-.02.15v27.007c0 .071-.046.14-.14.193" fill="#4D217A"/><path d="M119.936 91.526c-.356.206-.825.308-1.291.308-.466 0-.935-.105-1.292-.308-.356-.206-.535-.476-.535-.745V62.316c0-.27.179-.54.535-.746.357-.206.826-.308 1.292-.308.466 0 .935.102 1.291.308.357.206.535.476.535.746V90.78c0 .27-.178.539-.535.745z" fill="#4D217A"/><path d="M119.936 63.061c-.356.206-.825.308-1.291.308-.466 0-.935-.104-1.292-.308-.356-.206-.535-.476-.535-.745 0-.27.179-.54.535-.746.357-.206.826-.308 1.292-.308.466 0 .935.102 1.291.308.357.206.535.476.535.746s-.178.54-.535.745zM120.351 65.644c-.471.272-1.087.407-1.706.407s-1.236-.138-1.707-.407c-.471-.273-.706-.629-.706-.985 0-.323.197-.649.586-.908v.908c0 .27.179.54.535.745.357.207.826.308 1.292.308.466 0 .935-.102 1.291-.308.357-.206.535-.475.535-.745v-.908c.39.26.586.585.586.908 0 .356-.234.712-.706.985zM120.351 68.524c-.471.272-1.087.407-1.706.407s-1.236-.138-1.707-.407c-.471-.273-.706-.629-.706-.985 0-.323.197-.649.586-.908v.908c0 .27.179.54.535.745.357.207.826.308 1.292.308.466 0 .935-.101 1.291-.308.357-.206.535-.475.535-.745v-.908c.39.26.586.585.586.908 0 .356-.234.712-.706.985zM120.351 71.406c-.471.272-1.087.407-1.706.407s-1.236-.137-1.707-.407c-.471-.272-.706-.628-.706-.984 0-.323.197-.65.586-.909v.909c0 .27.179.539.535.745.357.206.826.308 1.292.308.466 0 .935-.102 1.291-.308.357-.206.535-.476.535-.745v-.909c.39.26.586.585.586.909 0 .356-.234.712-.706.984zM120.351 74.286c-.471.272-1.087.407-1.706.407s-1.236-.137-1.707-.407c-.471-.272-.706-.628-.706-.984 0-.323.197-.65.586-.909v.909c0 .27.179.54.535.745.357.206.826.308 1.292.308.466 0 .935-.102 1.291-.308.357-.206.535-.476.535-.745v-.909c.39.26.586.586.586.909 0 .356-.234.712-.706.984zM120.351 77.169c-.471.272-1.087.407-1.706.407s-1.236-.137-1.707-.407c-.471-.272-.706-.629-.706-.985 0-.323.197-.648.586-.908v.908c0 .27.179.54.535.746.357.206.826.308 1.292.308.466 0 .935-.102 1.291-.308.357-.206.535-.476.535-.746v-.908c.39.26.586.585.586.908 0 .356-.234.713-.706.985zM120.351 80.049c-.471.272-1.087.407-1.706.407s-1.236-.137-1.707-.407c-.471-.272-.706-.629-.706-.985 0-.323.197-.648.586-.908v.908c0 .27.179.54.535.746.357.206.826.308 1.292.308.466 0 .935-.102 1.291-.308.357-.206.535-.476.535-.746v-.908c.39.26.586.585.586.908 0 .357-.234.713-.706.985zM120.351 82.932c-.471.272-1.087.407-1.706.407s-1.236-.138-1.707-.407c-.471-.273-.706-.629-.706-.985 0-.323.197-.649.586-.908v.908c0 .27.179.54.535.745.357.207.826.308 1.292.308.466 0 .935-.102 1.291-.308.357-.206.535-.475.535-.745v-.908c.39.26.586.585.586.908 0 .356-.234.712-.706.985zM120.351 85.812c-.471.272-1.087.407-1.706.407s-1.236-.138-1.707-.407c-.471-.273-.706-.629-.706-.985 0-.323.197-.649.586-.908v.908c0 .27.179.54.535.746.357.206.826.307 1.292.307.466 0 .935-.101 1.291-.307.357-.207.535-.476.535-.746v-.908c.39.26.586.585.586.908 0 .356-.234.712-.706.985zM120.351 88.692c-.471.272-1.087.407-1.706.407s-1.236-.138-1.707-.407c-.471-.272-.706-.629-.706-.985 0-.323.197-.649.586-.908v.908c0 .27.179.54.535.746.357.206.826.307 1.292.307.466 0 .935-.101 1.291-.308.357-.206.535-.475.535-.745V86.8c.39.26.586.585.586.908 0 .356-.234.713-.706.985z" fill="#4D217A"/><path fill-rule="evenodd" clip-rule="evenodd" d="M116.882 91.633V69.345c0-.183.094-.343.252-.437l.087-.051c.104 0 .221.203.14.26l-.082.048a.201.201 0 00-.104.18v22.278c-.008.099-.296.112-.296.007" fill="#4D217A"/><path d="M94.555 74.55l-.018 7.952-13.664 7.93.018-7.95 13.664-7.931zM80.89 82.481l-.017 7.95-27.567-15.92.02-7.951L80.891 82.48z" fill="#4D217A"/><path d="M94.555 74.55L80.89 82.482 53.326 66.56l13.664-7.93 27.565 15.92zM77.686 81.812l1.953 1.127-.002 1.084-1.953-1.127.002-1.084zM75.121 80.334l1.953 1.127-.002 1.084-1.956-1.127.005-1.084zM72.553 78.856l1.954 1.127-.003 1.084-1.953-1.127.002-1.084zM69.986 77.377l1.953 1.125-.003 1.084-1.953-1.127.003-1.082zM67.418 75.897l1.953 1.127-.002 1.084-1.954-1.127.003-1.084zM64.853 74.419l1.953 1.127-.005 1.084-1.953-1.127.005-1.084zM62.285 72.94l1.953 1.128-.002 1.081-1.954-1.125.003-1.084zM59.717 71.46l1.953 1.127-.002 1.084-1.953-1.127.002-1.084zM57.152 69.981l1.953 1.128-.005 1.084-1.953-1.128.005-1.084zM54.584 68.503l1.954 1.127-.003 1.085-1.953-1.128.002-1.084zM77.686 84.567l1.953 1.125-.002 1.084-1.953-1.127.002-1.082zM75.121 83.087l1.953 1.127-.002 1.084-1.956-1.127.005-1.084zM72.553 81.609l1.954 1.127-.003 1.084-1.953-1.127.002-1.084zM69.986 80.13l1.953 1.128-.003 1.081-1.953-1.127.003-1.082zM67.418 78.65l1.953 1.127-.002 1.084-1.954-1.127.003-1.084zM64.853 77.171l1.953 1.128-.005 1.084-1.953-1.128.005-1.084zM62.285 75.693l1.953 1.127-.002 1.082-1.954-1.125.003-1.084zM59.717 74.213l1.953 1.127-.002 1.084-1.953-1.128.002-1.083zM57.152 72.734l1.953 1.128-.005 1.084-1.953-1.128.005-1.084zM54.584 71.256l1.954 1.127-.003 1.084-1.953-1.127.002-1.084z" fill="#4D217A"/><path d="M71.05 65.023l-5.889-3.417-.005-.598 5.887 3.417.007.598z" fill="#4D217A"/><path d="M71.045 64.425l-5.89-3.417 1.792-1.033 5.887 3.417-1.789 1.033z" fill="#4D217A"/><path d="M72.833 63.392l.005.6-1.787 1.031-.008-.598 1.79-1.033zM62.57 70.3l-5.889-3.417-.005-.6 5.887 3.416.007.6zM62.563 69.699l-5.887-3.417 1.79-1.03 5.887 3.417-1.79 1.03z" fill="#4D217A"/><path d="M64.353 68.669l.005.598L62.57 70.3l-.007-.6 1.79-1.031zM85.26 78.545l-5.887-3.417-.008-.597 5.89 3.416.005.598z" fill="#4D217A"/><path d="M85.254 77.947l-5.89-3.416 1.792-1.033 5.887 3.416-1.789 1.033z" fill="#4D217A"/><path d="M87.042 76.915l.005.6-1.788 1.03-.007-.597 1.79-1.033zM124.088 91.714l-.017 7.95-13.664 7.931.017-7.95 13.664-7.93z" fill="#4D217A"/><path d="M110.424 99.645l-.02 7.95L82.84 91.676l.02-7.953 27.564 15.922z" fill="#4D217A"/><path d="M124.088 91.714l-13.664 7.93-27.567-15.919 13.667-7.932 27.564 15.921zM107.22 98.978l1.953 1.125-.002 1.084-1.954-1.125.003-1.084zM104.655 97.497l1.953 1.127-.005 1.085-1.953-1.128.005-1.084zM102.087 96.02l1.953 1.126-.002 1.084-1.953-1.127.002-1.084zM99.52 94.54l1.953 1.128-.003 1.082-1.953-1.125.002-1.084zM96.952 93.06l1.955 1.127-.005 1.084-1.953-1.127.003-1.084zM94.386 91.582l1.954 1.127-.003 1.084-1.956-1.127.005-1.084zM91.819 90.104l1.953 1.127-.003 1.081-1.953-1.124.003-1.084zM89.251 88.623l1.953 1.127-.002 1.084-1.953-1.127.002-1.084zM86.683 87.145l1.954 1.127-.003 1.084-1.953-1.127.002-1.084zM84.118 85.667l1.953 1.127-.002 1.084-1.956-1.127.005-1.084zM107.22 101.731l1.953 1.127-.002 1.082-1.954-1.128.003-1.081zM104.655 100.25l1.953 1.127-.005 1.084-1.953-1.127.005-1.084zM102.087 98.772l1.953 1.127-.002 1.084-1.953-1.127.002-1.084zM99.52 97.294l1.953 1.127-.003 1.081-1.953-1.127.002-1.081zM96.952 95.813l1.955 1.127-.005 1.084-1.953-1.127.003-1.084zM94.386 94.335l1.954 1.127-.003 1.084-1.956-1.127.005-1.084zM91.819 92.857l1.953 1.127-.003 1.084-1.953-1.127.003-1.084zM89.251 91.378l1.953 1.125-.002 1.084-1.953-1.127.002-1.082zM86.683 89.898l1.954 1.127-.003 1.084-1.953-1.127.002-1.084zM84.118 88.42l1.953 1.127-.002 1.084-1.956-1.127.005-1.085z" fill="#4D217A"/><path d="M100.584 82.186l-5.887-3.417-.007-.598 5.889 3.417.005.598z" fill="#4D217A"/><path d="M100.579 81.588l-5.89-3.417 1.791-1.033 5.887 3.417-1.788 1.033z" fill="#4D217A"/><path d="M102.367 80.555l.005.6-1.788 1.031-.007-.598 1.79-1.033zM92.104 87.463l-5.89-3.417-.004-.6 5.886 3.416.008.6zM92.096 86.862l-5.886-3.416 1.79-1.03 5.887 3.416-1.79 1.03z" fill="#4D217A"/><path d="M93.887 85.832l.005.598-1.79 1.033-.005-.6 1.79-1.031zM114.793 95.709l-5.889-3.417-.005-.598 5.886 3.417.008.598z" fill="#4D217A"/><path d="M114.785 95.11l-5.886-3.416 1.79-1.033 5.887 3.42-1.791 1.03z" fill="#4D217A"/><path d="M116.576 94.08l.005.598-1.788 1.03-.007-.597 1.79-1.03z" fill="#4D217A"/><mask id="a" maskUnits="userSpaceOnUse" x="127" y="59" width="4" height="6"><path d="M130.765 59.766h-3.676v5.048h3.676v-5.048z" fill="#fff"/></mask><g mask="url(#a)"><mask id="b" maskUnits="userSpaceOnUse" x="127" y="59" width="4" height="6"><path d="M130.686 59.967h-3.426v4.402h3.426v-4.402z" fill="#fff"/></mask><g mask="url(#b)"><path d="M127.26 63.148c.002-1.09.774-2.412 1.724-2.952.945-.54 1.71-.094 1.702.992-.003 1.092-.774 2.412-1.725 2.952-.942.54-1.706.094-1.701-.992z" fill="#4D217A"/></g></g><path d="M128.08 64.01l1.325.774 2.058-3.524-1.325-.771c-.26-.153-.616-.135-1.021.094-.8.456-1.452 1.572-1.457 2.493 0 .46.16.784.42.934z" fill="#4D217A"/><path d="M128.987 63.85c.005-.92.657-2.038 1.456-2.493.8-.456 1.444-.08 1.437.84 0 .92-.655 2.037-1.457 2.493-.794.455-1.441.081-1.436-.837" fill="#4D217A"/><path d="M157.856 77.79L131.58 61.96c-.744-.435-1.403-.013-1.837.73-.433.74-.476 1.521.27 1.956l26.276 15.83M135.029 82.677l.018 13.772 13.664 7.93-.018-13.772-13.664-7.93z" fill="#4D217A"/><path d="M148.693 90.608l.02 13.771 27.565-15.921-.02-13.77-27.565 15.92z" fill="#4D217A"/><path d="M135.029 82.677l13.664 7.93 27.567-15.919-13.666-7.933-27.565 15.922zM151.897 89.94l-1.953 1.128.002 1.084 1.953-1.127-.002-1.084zM154.465 88.463l-1.956 1.124.005 1.084 1.953-1.127-.002-1.081zM157.03 86.982l-1.953 1.127.002 1.084 1.956-1.127-.005-1.084zM159.597 85.504l-1.953 1.127.003 1.084 1.953-1.127-.003-1.084zM162.165 84.026l-1.953 1.127.003 1.081 1.953-1.124-.003-1.084zM164.73 82.545l-1.953 1.127.005 1.084 1.953-1.127-.005-1.084zM167.298 81.067l-1.953 1.127.002 1.084 1.954-1.127-.003-1.084zM169.866 79.588l-1.953 1.128.002 1.084 1.953-1.128-.002-1.084zM172.433 78.11l-1.953 1.125.003 1.084 1.953-1.127-.003-1.082zM174.999 76.63l-1.953 1.127.002 1.084 1.956-1.127-.005-1.085z" fill="#4D217A"/><path d="M153.141 81.286l1.398-.774.005-.6-1.398.776-.005.598z" fill="#4D217A"/><path d="M153.146 80.688l1.398-.776-1.791-1.03-1.396.775 1.789 1.03z" fill="#4D217A"/><path d="M151.357 79.657l-.007.598 1.79 1.033.005-.6-1.788-1.03zM150.909 82.588l1.398-.776.005-.6-1.398.776-.005.6z" fill="#4D217A"/><path d="M150.914 81.988l1.399-.774-1.791-1.033-1.396.776 1.788 1.03z" fill="#4D217A"/><path d="M149.126 80.957l-.008.598 1.791 1.033.005-.6-1.788-1.03zM148.415 84l1.398-.776.008-.6-1.398.776-.008.6z" fill="#4D217A"/><path d="M148.423 83.4l1.399-.776-1.791-1.03-1.399.773 1.791 1.033zM146.632 82.367l-.005.6L148.415 84l.007-.6-1.79-1.033zM161.952 133.758l43.508-25.346c2.056-1.193 2.053-4.162-.007-5.351l-24.732-14.263a3.095 3.095 0 00-3.103.006l-43.509 25.345c-2.055 1.193-2.053 4.163.008 5.353l24.732 14.263a3.095 3.095 0 003.103-.005" fill="#4D217A"/><path d="M181.019 87.529a5.86 5.86 0 005.864 5.857 5.86 5.86 0 005.864-5.857 5.86 5.86 0 00-5.864-5.857 5.858 5.858 0 00-5.864 5.857z" fill="#4D217A"/><path d="M186.883 91.356c1.528 0 3.056-.336 4.22-1.005 1.154-.667 1.636-1.56 1.636-2.52 0 .85-.721 1.654-1.781 2.268-2.246 1.295-5.902 1.295-8.149 0-1.062-.611-1.767-1.418-1.767-2.267h-.021c0 .959.489 1.852 1.643 2.519 1.164.671 2.693 1.005 4.221 1.005" fill="#4D217A"/><path d="M186.882 91.035c.186 0 .337.15.337.336v5.76c0 .05-.034.1-.097.138a.523.523 0 01-.476 0c-.064-.038-.097-.086-.097-.137V91.37c0-.186.15-.336.336-.336M182.476 89.964c.185 0 .336.15.336.336v5.76c0 .049-.033.1-.1.138a.517.517 0 01-.473 0c-.066-.038-.097-.086-.097-.137V90.3c0-.186.15-.336.336-.336M191.264 89.964c.186 0 .336.15.336.336v5.76c0 .049-.033.1-.099.138a.52.52 0 01-.474 0c-.064-.038-.097-.086-.097-.137V90.3c0-.186.15-.336.336-.336M180.703 87.432c.185 0 .336.15.336.336v5.761c0 .048-.033.1-.097.138a.524.524 0 01-.476 0c-.066-.039-.097-.087-.097-.138v-5.76c0-.184.15-.337.336-.337M193.072 87.432c.186 0 .337.15.337.336v5.761c0 .048-.033.1-.097.138a.524.524 0 01-.476 0c-.064-.039-.097-.087-.097-.138v-5.76c0-.184.15-.337.336-.337" fill="#4D217A"/><path d="M169.148 94.426a5.86 5.86 0 005.864 5.857c3.24 0 5.864-2.62 5.864-5.857a5.858 5.858 0 00-5.864-5.856 5.858 5.858 0 00-5.864 5.856z" fill="#4D217A"/><path d="M175.009 98.253c1.529 0 3.057-.336 4.221-1.008 1.154-.666 1.636-1.56 1.636-2.518 0 .85-.721 1.653-1.781 2.266-2.247 1.296-5.902 1.296-8.149 0-1.059-.61-1.768-1.417-1.768-2.266h-.02c0 .956.489 1.852 1.643 2.518 1.164.672 2.693 1.008 4.221 1.008" fill="#4D217A"/><path d="M175.012 97.932c.186 0 .336.15.336.336v5.761c0 .048-.033.099-.099.138a.525.525 0 01-.476 0c-.064-.039-.097-.087-.097-.138v-5.76c0-.187.15-.337.336-.337zM170.605 96.861c.186 0 .336.15.336.336v5.761c0 .051-.033.099-.099.137a.515.515 0 01-.474 0c-.066-.038-.097-.086-.097-.137v-5.76c0-.187.151-.337.337-.337M179.393 96.861c.186 0 .336.15.336.336v5.761c0 .051-.033.099-.099.137a.513.513 0 01-.473 0c-.064-.038-.097-.086-.097-.137v-5.76c0-.187.15-.337.336-.337M168.832 94.33c.186 0 .336.15.336.336v5.76c0 .049-.033.1-.097.138a.525.525 0 01-.476 0c-.063-.038-.097-.087-.097-.138v-5.76c0-.186.151-.336.337-.336M181.202 94.33c.186 0 .336.15.336.336v5.76c0 .049-.033.1-.099.138a.521.521 0 01-.474 0c-.064-.038-.097-.087-.097-.138v-5.76c0-.186.151-.336.336-.336" fill="#4D217A"/><path d="M157.277 101.324a5.86 5.86 0 005.864 5.857 5.858 5.858 0 100-11.714 5.858 5.858 0 00-5.864 5.857z" fill="#4D217A"/><path d="M163.139 105.148c1.528 0 3.057-.336 4.221-1.005 1.154-.667 1.635-1.56 1.635-2.519 0 .85-.721 1.654-1.78 2.267-2.247 1.295-5.903 1.295-8.149 0-1.063-.611-1.768-1.417-1.768-2.267h-.021c0 .959.49 1.852 1.644 2.519 1.164.671 2.692 1.005 4.22 1.005" fill="#4D217A"/><path d="M163.141 104.83c.186 0 .336.15.336.336v5.761c0 .048-.033.099-.099.137a.525.525 0 01-.476 0c-.064-.038-.097-.087-.097-.137v-5.761c0-.186.15-.336.336-.336zM158.734 103.756c.186 0 .337.15.337.336v5.761c0 .051-.033.099-.097.137a.515.515 0 01-.474 0c-.066-.038-.097-.086-.097-.137v-5.761c0-.186.151-.336.337-.336M167.523 103.756c.186 0 .336.15.336.336v5.761c0 .051-.033.099-.097.137a.52.52 0 01-.476 0c-.064-.038-.097-.086-.097-.137v-5.761c0-.186.15-.336.336-.336M156.962 101.227c.185 0 .336.15.336.336v5.761c0 .048-.033.099-.097.137a.52.52 0 01-.476 0c-.064-.038-.097-.086-.097-.137v-5.761c0-.186.15-.336.336-.336M169.331 101.227c.186 0 .337.15.337.336v5.761c0 .048-.034.099-.1.137a.52.52 0 01-.476 0c-.064-.038-.097-.086-.097-.137v-5.761c0-.186.15-.336.336-.336z" fill="#4D217A"/><path d="M145.407 108.221a5.86 5.86 0 005.864 5.857 5.86 5.86 0 005.864-5.857 5.86 5.86 0 00-5.864-5.857 5.859 5.859 0 00-5.864 5.857z" fill="#4D217A"/><path d="M151.268 112.045c1.529 0 3.057-.336 4.221-1.005 1.154-.666 1.636-1.559 1.636-2.519 0 .85-.721 1.654-1.781 2.267-2.247 1.295-5.902 1.295-8.149 0-1.062-.61-1.768-1.417-1.768-2.267h-.02c0 .957.489 1.853 1.643 2.519 1.164.672 2.693 1.005 4.221 1.005" fill="#4D217A"/><path d="M151.268 111.727c.186 0 .336.15.336.336v5.761c0 .048-.033.099-.096.137a.521.521 0 01-.477 0c-.063-.038-.096-.086-.096-.137v-5.761c0-.186.15-.336.336-.336M146.864 110.653c.186 0 .336.151.336.336v5.761c0 .049-.033.1-.099.138a.521.521 0 01-.474 0c-.066-.038-.097-.087-.097-.138v-5.761c0-.185.151-.336.336-.336M155.652 110.653c.186 0 .336.151.336.336v5.761c0 .049-.033.1-.099.138a.521.521 0 01-.474 0c-.063-.038-.096-.087-.096-.138v-5.761c0-.185.15-.336.336-.336M145.091 108.125c.186 0 .336.15.336.335v5.761c0 .049-.033.1-.097.138a.52.52 0 01-.473 0c-.067-.038-.097-.087-.097-.138v-5.761c0-.185.15-.335.336-.335M157.461 108.125c.186 0 .336.15.336.335v5.761c0 .049-.033.1-.097.138a.525.525 0 01-.476 0c-.064-.038-.097-.087-.097-.138v-5.761c0-.185.151-.335.336-.335M151.508 104.456l36.877-21.344-1.141-.626-36.954 21.306 1.218.664z" fill="#4D217A"/><path d="M149.455 103.914v-.14h3.63v.14c0 .269-.176.534-.533.74-.708.41-1.857.41-2.568 0-.354-.206-.529-.471-.529-.74z" fill="#4D217A"/><path d="M149.987 104.514c.711.41 1.86.41 2.568 0 .708-.409.708-1.071 0-1.48-.711-.41-1.86-.41-2.568 0-.708.409-.708 1.071 0 1.48zM161.325 97.019v-.14h3.63v.14c0 .27-.176.534-.532.74-.708.41-1.857.41-2.568 0-.354-.206-.53-.47-.53-.74z" fill="#4D217A"/><path d="M161.858 97.617c.71.41 1.859.41 2.567 0 .708-.41.708-1.071 0-1.48-.71-.41-1.859-.41-2.567 0-.709.409-.709 1.07 0 1.48zM173.196 90.122v-.14h3.63v.14c0 .27-.176.534-.533.74-.708.41-1.857.41-2.567 0-.354-.206-.53-.473-.53-.74z" fill="#4D217A"/><path d="M173.728 90.722c.711.41 1.86.41 2.568 0s.708-1.071 0-1.48c-.708-.408-1.857-.408-2.568 0-.708.409-.708 1.07 0 1.48zM185.066 83.224v-.14h3.63v.14c0 .27-.175.534-.532.74-.708.41-1.857.41-2.568 0-.354-.206-.53-.47-.53-.74z" fill="#4D217A"/><path d="M185.599 83.825c.71.41 1.859.41 2.567 0 .709-.41.709-1.072 0-1.481-.71-.41-1.859-.41-2.567 0-.708.41-.708 1.071 0 1.48zM189.871 99.047a5.86 5.86 0 005.864 5.857 5.86 5.86 0 005.863-5.857 5.86 5.86 0 00-5.863-5.857 5.858 5.858 0 00-5.864 5.857z" fill="#4D217A"/><path d="M195.735 102.873c1.528 0 3.056-.336 4.22-1.007 1.154-.667 1.636-1.56 1.636-2.52 0 .851-.721 1.655-1.781 2.268-2.247 1.295-5.902 1.295-8.149 0-1.062-.611-1.768-1.417-1.768-2.267h-.02c0 .957.489 1.852 1.643 2.519 1.164.671 2.693 1.007 4.221 1.007" fill="#4D217A"/><path d="M195.734 102.553c.186 0 .337.15.337.336v5.76c0 .049-.034.1-.1.138a.525.525 0 01-.476 0c-.064-.038-.097-.087-.097-.138v-5.76c0-.186.15-.336.336-.336zM191.33 101.479c.186 0 .336.15.336.336v5.761c0 .051-.033.099-.097.137a.513.513 0 01-.473 0c-.066-.038-.097-.086-.097-.137v-5.761c0-.186.15-.336.336-.336M200.116 101.479c.186 0 .336.15.336.336v5.761c0 .051-.033.099-.097.137a.52.52 0 01-.476 0c-.064-.038-.097-.086-.097-.137v-5.761c0-.186.15-.336.336-.336M189.557 98.95c.186 0 .336.15.336.336v5.761c0 .048-.033.099-.096.137a.521.521 0 01-.477 0c-.063-.038-.096-.086-.096-.137v-5.761c0-.186.15-.336.336-.336M201.924 98.95c.186 0 .337.15.337.336v5.761c0 .048-.034.099-.1.137a.52.52 0 01-.476 0c-.064-.038-.097-.086-.097-.137v-5.761c0-.186.151-.336.336-.336z" fill="#4D217A"/><path d="M178 105.944a5.86 5.86 0 005.864 5.857 5.859 5.859 0 005.864-5.857 5.859 5.859 0 00-5.864-5.857 5.859 5.859 0 00-5.864 5.857z" fill="#4D217A"/><path d="M183.864 109.768c1.528 0 3.057-.336 4.221-1.005 1.154-.666 1.635-1.56 1.635-2.519 0 .85-.721 1.654-1.78 2.267-2.247 1.295-5.902 1.295-8.149 0-1.062-.61-1.768-1.417-1.768-2.267h-.02c0 .957.489 1.853 1.643 2.519 1.164.672 2.692 1.005 4.221 1.005" fill="#4D217A"/><path d="M183.864 109.45c.186 0 .336.15.336.336v5.761c0 .048-.033.099-.099.137a.515.515 0 01-.474 0c-.064-.038-.097-.086-.097-.137v-5.761c0-.186.151-.336.336-.336M179.46 108.376c.185 0 .336.15.336.336v5.761c0 .051-.033.099-.1.138a.52.52 0 01-.473 0c-.067-.039-.097-.087-.097-.138v-5.761c0-.186.15-.336.336-.336M188.245 108.376c.186 0 .336.15.336.336v5.761c0 .051-.033.099-.099.138a.521.521 0 01-.474 0c-.063-.039-.096-.087-.096-.138v-5.761c0-.186.15-.336.336-.336M177.687 105.847c.185 0 .336.151.336.336v5.761c0 .049-.033.099-.097.138a.521.521 0 01-.474 0c-.066-.039-.096-.087-.096-.138v-5.761c0-.185.15-.336.336-.336M190.054 105.847c.186 0 .336.151.336.336v5.761c0 .049-.033.099-.097.138a.525.525 0 01-.476 0c-.064-.039-.097-.087-.097-.138v-5.761c0-.185.151-.336.336-.336" fill="#4D217A"/><path d="M166.129 112.839a5.86 5.86 0 005.864 5.857 5.86 5.86 0 005.864-5.857 5.86 5.86 0 00-5.864-5.857 5.859 5.859 0 00-5.864 5.857z" fill="#4D217A"/><path d="M171.993 116.665c1.529 0 3.057-.335 4.221-1.004 1.154-.667 1.636-1.56 1.636-2.519 0 .849-.721 1.653-1.781 2.267-2.247 1.295-5.902 1.295-8.149 0-1.059-.611-1.768-1.418-1.768-2.267h-.02c0 .959.489 1.852 1.643 2.519 1.164.671 2.693 1.004 4.221 1.004" fill="#4D217A"/><path d="M171.993 116.345c.186 0 .336.15.336.336v5.761c0 .048-.033.099-.099.137a.525.525 0 01-.476 0c-.064-.038-.097-.086-.097-.137v-5.761c0-.186.15-.336.336-.336zM167.586 115.274c.186 0 .337.15.337.336v5.761c0 .048-.034.099-.097.137a.521.521 0 01-.474 0c-.066-.038-.097-.087-.097-.137v-5.761c0-.186.151-.336.337-.336M176.375 115.274c.186 0 .336.15.336.336v5.761c0 .048-.033.099-.099.137a.521.521 0 01-.474 0c-.066-.038-.097-.087-.097-.137v-5.761c0-.186.15-.336.336-.336M165.814 112.742c.185 0 .336.15.336.336v5.761c0 .048-.033.099-.097.137a.52.52 0 01-.476 0c-.064-.038-.097-.086-.097-.137v-5.761c0-.186.15-.336.336-.336M178.183 112.742c.186 0 .336.15.336.336v5.761c0 .048-.033.099-.099.137a.52.52 0 01-.476 0c-.064-.038-.097-.086-.097-.137v-5.761c0-.186.15-.336.336-.336z" fill="#4D217A"/><path d="M154.259 119.736a5.86 5.86 0 005.864 5.857 5.86 5.86 0 005.864-5.857 5.86 5.86 0 00-5.864-5.856 5.858 5.858 0 00-5.864 5.856z" fill="#4D217A"/><path d="M160.123 123.563c1.528 0 3.057-.336 4.221-1.005 1.154-.667 1.635-1.56 1.635-2.519 0 .85-.721 1.654-1.78 2.267-2.247 1.295-5.903 1.295-8.149 0-1.063-.611-1.768-1.417-1.768-2.267h-.021c0 .957.49 1.852 1.644 2.519 1.164.672 2.692 1.005 4.22 1.005" fill="#4D217A"/><path d="M160.123 123.242c.186 0 .336.15.336.336v5.761c0 .048-.033.099-.097.137a.52.52 0 01-.476 0c-.064-.038-.097-.086-.097-.137v-5.761c0-.186.15-.336.336-.336M155.716 122.171c.186 0 .336.15.336.336v5.761c0 .048-.033.099-.099.137a.515.515 0 01-.474 0c-.066-.038-.097-.086-.097-.137v-5.761c0-.186.151-.336.336-.336M164.504 122.171c.186 0 .336.15.336.336v5.761c0 .048-.033.099-.099.137a.515.515 0 01-.474 0c-.063-.038-.096-.086-.096-.137v-5.761c0-.186.15-.336.336-.336M153.943 119.64c.186 0 .336.15.336.336v5.76c0 .049-.033.1-.097.138a.525.525 0 01-.476 0c-.066-.038-.097-.087-.097-.138v-5.76c0-.186.151-.336.337-.336M166.313 119.64c.186 0 .336.15.336.336v5.76c0 .049-.033.1-.097.138a.525.525 0 01-.476 0c-.064-.038-.097-.087-.097-.138v-5.76c0-.186.15-.336.336-.336M160.36 115.971l36.88-21.341-1.144-.629-36.951 21.308 1.215.662z" fill="#4D217A"/><path d="M158.307 115.432v-.14h3.63v.14c0 .269-.176.534-.533.74-.708.409-1.857.409-2.568 0-.354-.206-.529-.471-.529-.74z" fill="#4D217A"/><path d="M158.839 116.032c.711.41 1.86.41 2.568 0s.708-1.071 0-1.481c-.711-.409-1.86-.409-2.568 0-.708.41-.708 1.071 0 1.481zM170.177 108.534v-.14h3.63v.14c0 .27-.176.534-.532.74-.711.41-1.857.41-2.568 0-.354-.206-.53-.47-.53-.74z" fill="#4D217A"/><path d="M170.71 109.135c.71.409 1.859.409 2.567 0 .708-.41.708-1.072 0-1.481-.71-.41-1.857-.41-2.567 0-.709.409-.709 1.071 0 1.481zM182.05 101.639v-.14h3.63v.14c0 .27-.176.535-.532.741-.708.409-1.857.409-2.568 0-.354-.206-.53-.471-.53-.741z" fill="#4D217A"/><path d="M182.58 102.237c.711.41 1.86.41 2.568 0 .708-.409.708-1.071 0-1.481-.711-.407-1.86-.407-2.568 0-.708.41-.708 1.072 0 1.481zM193.921 94.742v-.14h3.63v.14c0 .27-.176.534-.533.74-.708.41-1.857.41-2.567 0-.354-.206-.53-.473-.53-.74z" fill="#4D217A"/><path d="M194.451 95.34c.71.41 1.859.41 2.567 0 .709-.41.709-1.071 0-1.481-.71-.41-1.859-.41-2.567 0-.709.41-.709 1.071 0 1.48z" fill="#4D217A"/><mask id="c" maskUnits="userSpaceOnUse" x="139" y="91" width="5" height="6"><path d="M143.634 91.437h-3.676v4.59h3.676v-4.59z" fill="#fff"/></mask><g mask="url(#c)"><mask id="d" maskUnits="userSpaceOnUse" x="140" y="91" width="4" height="5"><path d="M143.509 91.47h-3.426v4.401h3.426V91.47z" fill="#fff"/></mask><g mask="url(#d)"><path d="M143.509 94.653c-.005-1.09-.774-2.412-1.724-2.952-.945-.539-1.71-.094-1.702.993.003 1.091.774 2.412 1.725 2.951.942.54 1.706.094 1.701-.992z" fill="#4D217A"/></g></g><path d="M142.689 95.513l-1.325.773-2.058-3.523 1.325-.771c.26-.153.616-.135 1.021.094.8.458 1.452 1.572 1.457 2.493 0 .46-.16.784-.42.934z" fill="#4D217A"/><path d="M141.781 95.353c-.005-.921-.657-2.038-1.456-2.494-.8-.455-1.444-.079-1.437.84 0 .921.652 2.038 1.457 2.494.797.455 1.441.081 1.436-.838M99.942 129.354c1.763-1.023 1.753-2.682-.02-3.705-1.773-1.023-4.639-1.023-6.402 0-1.762 1.023-1.752 2.682.02 3.705 1.774 1.022 4.64 1.022 6.402 0z" fill="#4D217A"/><path d="M98.64 126.392c1.06.611 1.068 1.603.013 2.216-1.054.611-2.769.611-3.828 0-1.06-.611-1.068-1.603-.013-2.216 1.055-.613 2.769-.613 3.831 0h-.002z" fill="#4D217A" opacity=".15"/><path d="M97.882 128.02c-.607.354-1.588.357-2.199.011-.298-.168-.448-.392-.453-.614l-.02-2.976c-.016-3.196 2.14-6.961 4.903-8.572l39.073-22.404c.744-.433 1.404-.013 1.837.73.433.74.476 1.521-.27 1.956l-39.073 22.405c-1.799 1.048-3.37 3.791-3.36 5.872l.005 2.997c-.016.216-.16.43-.446.595" fill="#4D217A"/><path d="M50.96 143.207c1.166.672 1.171 1.763.012 2.435-1.159.671-3.044.671-4.208 0-1.164-.672-1.172-1.763-.013-2.435 1.16-.672 3.044-.672 4.211 0h-.002z" fill="#4D217A" opacity=".15"/><path d="M46.028 142.395c.876-.577 1.944-.842 3.003-.888.53-.02 1.078-.03 1.598.128.514.155 1.019.396 1.398.786l-.025.045a17.763 17.763 0 00-1.49-.318c-.49-.073-.976-.193-1.48-.221a7.019 7.019 0 00-1.511.079 5.24 5.24 0 00-1.465.432l-.025-.045-.003.002zM53.306 141.696c.642.353 1.245.842 1.59 1.518.167.336.257.72.236 1.102-.02.384-.15.756-.346 1.081-.395.659-1.02 1.145-1.69 1.476a6.29 6.29 0 01-2.144.59l-.005-.025c.706-.214 1.398-.45 2.03-.799.624-.346 1.24-.756 1.63-1.354.194-.295.324-.63.355-.982a2.04 2.04 0 00-.184-1.033c-.295-.659-.86-1.172-1.485-1.552l.013-.022zM39.749 134.778l-.107 15.863c0 .331-.222.662-.66.919-.884.514-2.303.514-3.194 0-.433-.25-.652-.58-.652-.914l.107-15.863c0 .333.216.662.652.913.889.514 2.31.514 3.194 0 .438-.254.66-.585.66-.918z" fill="#4D217A"/><path d="M39.079 133.847c.889.514.894 1.335.01 1.847-.884.514-2.303.514-3.194 0-.869-.501-.874-1.323.012-1.835.884-.514 2.306-.514 3.172-.012zM53.968 142.833l-.107 15.863c0 .331-.221.662-.66.919-.884.514-2.303.514-3.194 0-.433-.25-.652-.58-.652-.914l.107-15.863c0 .333.216.662.652.913.889.514 2.31.514 3.194 0 .438-.254.66-.585.66-.918z" fill="#4D217A"/><path d="M53.295 141.902c.89.514.895 1.335.01 1.847-.883.511-2.302.514-3.194 0-.868-.501-.873-1.323.013-1.835.884-.514 2.305-.514 3.171-.012z" fill="#4D217A"/><path d="M51.37 128.224l-.107 15.863c0 .331-.222.662-.66.919-.884.514-2.303.514-3.194 0-.433-.25-.652-.58-.652-.914l.107-15.863c0 .333.216.662.652.914.889.513 2.31.513 3.194 0 .438-.255.66-.586.66-.919z" fill="#4D217A"/><path d="M50.7 127.293c.889.514.894 1.335.01 1.847-.884.514-2.303.514-3.194 0-.869-.501-.874-1.323.012-1.835.884-.513 2.306-.513 3.172-.012zM65.586 136.279l-.107 15.863c0 .331-.221.662-.66.919-.883.514-2.302.514-3.194 0-.433-.25-.652-.58-.652-.914l.107-15.863c0 .333.217.662.652.914.89.513 2.31.513 3.195 0 .438-.255.66-.586.66-.919z" fill="#4D217A"/><path d="M64.916 135.348c.89.514.895 1.335.01 1.847-.883.514-2.302.514-3.194 0-.868-.501-.873-1.323.013-1.835.884-.513 2.305-.513 3.172-.012zM67.94 136.332v1.942l-16.05 9.317.002-1.942 16.048-9.317z" fill="#4D217A"/><path d="M51.892 145.649l-.003 1.942-18.898-10.928.002-1.939 18.899 10.925z" fill="#4D217A"/><path d="M67.94 136.332l-16.048 9.317-18.899-10.925 16.051-9.317 18.896 10.925z" fill="#4D217A"/><path d="M39.749 130.265l-.107 4.811c0 .33-.222.661-.66.918-.884.514-2.303.514-3.194 0-.433-.249-.652-.58-.652-.913l.107-4.811c0 .333.216.661.652.913.889.514 2.31.514 3.194 0 .438-.254.66-.585.66-.918z" fill="#4D217A"/><path d="M39.079 129.333c.889.514.894 1.336.01 1.847-.884.514-2.303.514-3.194 0-.869-.501-.874-1.323.012-1.834.884-.514 2.306-.514 3.172-.013zM53.968 138.32l-.107 4.811c0 .33-.221.661-.66.918-.884.514-2.303.514-3.194 0-.433-.249-.652-.58-.652-.913l.107-4.811c0 .333.216.661.652.913.889.514 2.31.514 3.194 0 .438-.254.66-.585.66-.918z" fill="#4D217A"/><path d="M53.295 137.388c.89.514.895 1.336.01 1.847-.883.514-2.302.514-3.194 0-.868-.501-.873-1.323.013-1.834.884-.514 2.305-.514 3.171-.013z" fill="#4D217A"/><path d="M51.37 123.711l-.107 15.863c0 .331-.222.661-.66.918-.884.514-2.303.514-3.194 0-.433-.249-.652-.58-.652-.913l.107-15.863c0 .333.216.661.652.913.889.514 2.31.514 3.194 0 .438-.254.66-.585.66-.918z" fill="#4D217A"/><path d="M50.7 122.779c.889.514.894 1.336.01 1.847-.884.514-2.303.514-3.194 0-.869-.501-.874-1.323.012-1.834.884-.514 2.306-.514 3.172-.013zM65.586 131.766l-.107 4.811c0 .331-.221.661-.66.918-.883.514-2.302.514-3.194 0-.433-.249-.652-.58-.652-.913l.107-4.811c0 .333.217.661.652.913.89.514 2.31.514 3.195 0 .438-.254.66-.585.66-.918z" fill="#4D217A"/><path d="M64.916 130.834c.89.514.895 1.336.01 1.847-.883.514-2.302.514-3.194 0-.868-.501-.873-1.323.013-1.834.884-.514 2.305-.514 3.172-.013zM67.163 134.203c0-.054-.023-.087-.06-.092v-.112l-15.163 8.742.008 2.55 15.162-8.742v-.077a.261.261 0 00.043-.137l.01-2.13v-.002zm-2.208 1.308l-.716 1.239-.721-.41 1.44-.829h-.003zm.081.284l-.007 1.407-.607-.346.614-1.061zm-7.542 4.018l-.716 1.239-.724-.41 1.44-.829zm-3.732 2.15l-.716 1.239-.721-.41 1.44-.829h-.003zm-1.585 1.167l.685.39-.68 1.178-.005-1.568zm.212 1.639l.66-1.142.664.379-1.324.763zm1.447-1.114l-.604-.346.611-1.059-.007 1.407v-.002zm.178.394zm.01-2.407c.023 0 .043.005.059.018l.104.058 1.44-.829-.716 1.239-.721-.41-.107-.056a.07.07 0 00-.059-.02zm1.684-.468l-.008 1.407-.606-.346.614-1.061zm-1.602.918l.621.354-.629 1.089.008-1.443zm1.47.838l-1.325.763.66-1.143.664.38.16.091-.162-.091h.002zm.315-2.364c.023 0 .044.005.059.018l.104.058-.104-.056a.062.062 0 00-.056-.02h-.003zm.077.448l.624.356-.632 1.094.008-1.448v-.002zm.15 1.603l.66-1.143.665.379-1.325.764zm1.45-1.112l-.604-.346.611-1.059-.008 1.407v-.002zm.188-2.015c.023 0 .043.005.059.018l.104.058 1.44-.829-.717 1.239-.72-.41-.107-.056a.066.066 0 00-.06-.02zm1.684-.468l-.008 1.407-.606-.346.614-1.061zm-1.605.918l.621.354-.629 1.089.008-1.443zm1.633.931l-.16-.091-1.325.763.66-1.142.664.379.16.091c.026.015.06.01.095-.01-.033.02-.069.025-.094.01zm.153-2.455c.023 0 .043.005.058.018l.105.058 1.439-.829-.716 1.239-.723-.41-.107-.056a.062.062 0 00-.056-.02zm1.683-.471l-.007 1.407-.604-.346.611-1.058v-.003zm-1.604.919l.624.353-.632 1.094.008-1.445v-.002zm1.474.837l-1.324.763.662-1.142.665.379h-.002zm.253.084a.158.158 0 01-.049.018.097.097 0 00.049-.018zm.06-2.448c.024 0 .044.005.06.018l.104.059 1.44-.83-.717 1.239-.72-.409-.108-.056c-.012-.016-.033-.023-.056-.021h-.002zm1.685-.468l-.008 1.407-.604-.346.614-1.061h-.002zm-1.605.921l.621.354-.629 1.089.008-1.443zm1.472.837l-1.325.763.66-1.142.665.379.16.092-.162-.092h.002zm.262-2.348a.293.293 0 010 0c.006 0 .008 0 .013-.005-.005 0-.007 0-.013.005zm.084 2.333a.451.451 0 000 0zm-.033-2.348c.023 0 .044.005.059.017l.105.059-.105-.056a.062.062 0 00-.056-.02h-.003zm.08.45l.62.354-.628 1.089.007-1.443zm1.472.837l-1.325.763.66-1.142.665.376v.003zm.303.046a.57.57 0 010 0zm.013-2.41c.023 0 .043.006.058.018l.105.059 1.439-.83-.716 1.239-.72-.409-.108-.056a.065.065 0 00-.056-.021h-.002zm1.683-.468l-.007 1.407-.604-.346.614-1.061h-.003zm-1.607.919l.624.356-.632 1.094.008-1.448v-.002zm1.635.928l-.16-.091-1.325.763.66-1.142.665.379.16.091a.06.06 0 00.044.008c-.015 0-.03 0-.044-.008z" fill="#4D217A"/><path d="M36.73 134.17c0-.054.023-.087.061-.092v-.112l15.162 8.742-.008 2.549-15.161-8.741v-.077a.262.262 0 01-.044-.137l-.01-2.13v-.002zm2.211 1.305l.716 1.239.721-.41-1.44-.829h.003zm-.081.285l.008 1.407.606-.346-.614-1.061zm7.543 4.017l.715 1.239.724-.409-1.44-.83zm3.729 2.153l.716 1.239.72-.41-1.439-.829h.003zm1.587 1.167l-.686.39.68 1.178.006-1.568zm-.212 1.636l-.66-1.142-.664.379 1.324.763zm-1.447-1.111l.604-.346-.611-1.059.008 1.407v-.002zm-.18.394zm-.01-2.409a.093.093 0 00-.06.017l-.104.059-1.439-.83.716 1.239.72-.409.108-.056a.067.067 0 01.058-.02zm-1.684-.469l.007 1.407.607-.346-.614-1.061zm1.604.921l-.621.354.63 1.089-.009-1.443zm-1.47.837l1.325.764-.66-1.143-.664.379-.16.092.162-.092h-.002zm-.315-2.366c.015 0 .033.008.05.018a.148.148 0 00-.05-.018.088.088 0 00-.059.018l-.104.059.104-.056c.013-.016.033-.023.056-.021h.003zm-.08.451l-.623.356.631 1.094-.007-1.448v-.002zm-.15 1.602l-.66-1.142-.664.379 1.325.763zm-1.446-1.114l.603-.346-.611-1.058.008 1.407v-.003zm-.189-2.012a.093.093 0 00-.059.017l-.104.059-1.44-.829.717 1.239.72-.41.108-.056a.067.067 0 01.058-.02zm-1.684-.469l.008 1.407.606-.346-.614-1.061zm1.603.919l-.622.354.63 1.089-.008-1.443zm-1.633.929l.16-.092 1.325.763-.66-1.142-.665.379-.16.092c-.026.015-.059.01-.095-.011.034.021.07.026.095.011zm-.15-2.456a.094.094 0 00-.06.018l-.104.059-1.439-.83.716 1.239.723-.409.107-.056a.065.065 0 01.056-.021zm-1.684-.468l.007 1.407.604-.346-.611-1.058v-.003zm1.605.919l-.625.353.632 1.094-.008-1.445v-.002zm-1.475.837l1.324.763-.662-1.142-.665.379h.003zm-.253.084c.018.01.033.015.049.018a.096.096 0 01-.049-.018zm-.06-2.448a.088.088 0 00-.06.018l-.104.059-1.439-.83.716 1.239.72-.409.108-.056c.012-.016.033-.023.056-.021h.002zm-1.684-.468l.007 1.407.604-.346-.614-1.061h.002zm1.604.919l-.621.353.629 1.089-.008-1.442zm-1.472.837l1.325.763-.66-1.142-.665.379-.16.091.162-.091h-.002zm-.265-2.346a.293.293 0 000 0c-.005 0-.008 0-.013-.005.005 0 .008 0 .013.005zm-.081 2.333a.46.46 0 010 0zm.033-2.351a.088.088 0 00-.059.018l-.104.058.104-.056a.062.062 0 01.056-.02h.003zm-.08.453l-.62.354.628 1.088-.007-1.442zm-1.472.834l1.325.764-.66-1.143-.665.377v.002zm-.303.046a.57.57 0 000 0zm-.013-2.409a.088.088 0 00-.058.018l-.105.058-1.439-.829.716 1.239.72-.41.108-.056a.062.062 0 01.056-.02h.002zm-1.683-.468l.007 1.407.604-.346-.614-1.061h.003zm1.607.918l-.624.356.632 1.094-.008-1.447v-.003zm-1.635.931l.16-.091 1.325.763-.66-1.142-.665.379-.16.091a.065.065 0 01-.044.008c.016 0 .03 0 .044-.008zm-.171-.02l-2.104-1.203v-.077a.262.262 0 01-.043-.137l-.01-2.13c0-.053.022-.086.06-.091v-.112l2.105 1.203m-.21 2.389zm-.012-2.409a.088.088 0 00-.059.018l-.104.058-1.44-.829.717 1.239.72-.41.107-.056a.062.062 0 01.056-.02h.003zm-1.684-.468l.008 1.407.604-.346-.614-1.061h.002zm1.608.918l-.624.356.631 1.094-.007-1.447v-.003zm-1.636.931l.16-.091 1.325.763-.66-1.142-.664.379-.16.091a.06.06 0 01-.044.008c.015 0 .03 0 .043-.008z" fill="#4D217A"/><path d="M67.94 132.055v1.939l-16.05 9.317.002-1.939 16.048-9.317zM51.892 141.372l-.003 1.939-18.898-10.925.002-1.941 18.899 10.927z" fill="#4D217A"/><path d="M67.94 132.055l-16.048 9.317-18.899-10.927 16.051-9.314 18.896 10.924z" fill="#4D217A"/><path d="M46.107 129.748v.504l-4.178 2.333v-.412l4.178-2.425z" fill="#4D217A"/><path d="M41.93 132.173v.412l-4.92-2.751.003-.506 4.916 2.845z" fill="#4D217A"/><path d="M46.107 129.748l-4.178 2.425-4.916-2.845 4.178-2.425 4.916 2.845zM58.958 122.99v.759l-6.271 3.5.002-.618 6.27-3.641z" fill="#4D217A"/><path d="M52.69 126.631l-.003.618-7.382-4.129v-.758l7.384 4.269z" fill="#4D217A"/><path d="M58.958 122.99l-6.269 3.641-7.384-4.269 6.271-3.641 7.382 4.269z" fill="#4D217A"/><path d="M54.3 121.003c1.303.753 1.311 1.957.015 2.71-1.297.753-3.378.753-4.682 0-1.305-.753-1.28-1.939.017-2.689 1.297-.753 3.378-.753 4.65-.018v-.003z" fill="#4D217A"/><path d="M54.572 122.362l-2.428 1.407-1.082-.623.901-.525-.55-.318-.902.525-1.082-.624 2.427-1.409 1.083.626-.892.516.553.316.89-.517 1.082.626zM48.24 127.471l-4.716-2.717 2.356-1.362 4.715 2.72-2.356 1.359z" fill="#4D217A"/><path d="M48.239 125.57l-4.712-2.72 2.356-1.358 4.712 2.717-2.356 1.361z" fill="#4D217A"/><path fill-rule="evenodd" clip-rule="evenodd" d="M43.527 122.851v1.903l4.712 2.72v-1.904l-4.712-2.719z" fill="#4D217A"/><path fill-rule="evenodd" clip-rule="evenodd" d="M50.595 124.209v1.903l-2.356 1.362v-1.904l2.356-1.361z" fill="#4D217A"/><path d="M47.768 126.367v.018l-.235-.135v-.817l.235.137v.797zM47.067 125.967v.021l-.234-.138v-.814l.234.135v.796zM46.367 125.568v.02l-.234-.137v-.814l.234.134v.797zM45.666 125.171v.018l-.234-.135v-.817l.234.137v.797zM44.966 124.771v.018l-.235-.135v-.816l.235.137v.796zM44.046 123.448l.22.128V124.392l-.235-.137v-.814l.015.007zM48.344 130.292l4.712-2.717-2.356-1.361-4.713 2.72 2.357 1.358z" fill="#4D217A"/><path d="M48.341 128.392l4.715-2.72-2.356-1.359-4.715 2.72 2.356 1.359z" fill="#4D217A"/><path fill-rule="evenodd" clip-rule="evenodd" d="M53.056 125.672v1.903l-4.715 2.72v-1.903l4.715-2.72zM45.985 127.033v1.904l2.355 1.358v-1.903l-2.355-1.359z" fill="#4D217A"/><path d="M48.815 129.188v.018l.234-.135v-.817l-.234.138v.796zM49.515 128.789v.02l.235-.137v-.814l-.235.134v.797zM50.213 128.392v.018l.237-.135v-.817l-.237.137v.797zM50.914 127.992v.018l.237-.135v-.816l-.237.137v.796zM51.614 127.593v.02l.237-.137v-.814l-.237.135v.796zM52.534 126.272l-.22.128V127.214l.238-.137v-.815l-.018.01zM41.371 113.661l.02-.033-.672.343.02.01.632-.32z" fill="#4D217A"/><path d="M40.546 113.875l-.19.279.175.097.323.178.176.097.377.211.127.069.04.023.026-.038.02-.031.148-.211-.196-.11-.354-.195-.175-.095-.303-.168-.02-.01-.174-.096z" fill="#4D217A"/><path d="M41.407 114.737l-.787.402-.138.201.11.071.825-.419.117-.186-.127-.069z" fill="#4D217A"/><path d="M40.472 115.002l-.186.28.158.076.02.01.018-.028.138-.201.41-.613-.176-.097-.382.573zM41.371 113.661l-.328.488.176.094.349-.521.168-.252-.179-.089-.165.247-.02.033z" fill="#4D217A"/><path d="M40.304 113.923l-.002.036-.118 1.526.207-.096.053-.026-.158-.081.186-.28.059-.751-.176-.097.191-.279.173.096.672-.343.166-.247.178.089-.168.252.005.717.196.11-.147.211.214-.117-.003-.122-.008-1.374-1.52.776zM41.537 124.354l-.942 2.074.137.196.889-1.954.153-.334-.156-.01h-.025l-.04-.002-.016.03zM39.736 124.639l-.178.357.15.02.015.002.049.008.02-.041.92-1.827-.146-.168-.83 1.649zM41.504 121.133l-.772 1.535.143.165.728-1.445.163-.321-.214-.028-.048.094z" fill="#4D217A"/><path d="M39.973 121.795l-.222.257.169.196.646.743.145.168.818.938.056.064.033-.038.191-.216-.194-.222-.74-.852-.143-.166-.688-.791-.071-.081zM39.99 121.329l-.183.334.156.035.048.013.059-.104.748-1.369-.15-.143-.677 1.234zM40.195 119.131l-.036-.013-.005.051.013-.015.096.091 1.21-.618.079-.142.204.048-.163.295.007 1.682.196.183-.193.237v.028l.26-.145-.013-2.639v.125l-.26.145-.013.015-.112-.086-1.176.598-.094.16z" fill="#4D217A"/><path d="M40.167 119.154l-.01.015-.003.008-.01.005-.194.236.173.163.545.514.15.143.678.641.084.079.023-.028.193-.237-.196-.183-.61-.58-.154-.143-.573-.542-.096-.091z" fill="#4D217A"/><path d="M39.698 121.889l-.003.033.26-.124.008-.1-.156-.035.184-.334.132-1.748-.173-.163.194-.236-.25.114-.196 2.593zM40.187 118.754l-.186.313.158.051.036.013.094-.16.616-1.038-.16-.125-.558.946zM41.611 116.416l-.028.038.166.054-.166.277.005 1.252.199.155-.196.252.26-.145v-.122l-.01-2.013v.125l-.23.127z" fill="#4D217A"/><path d="M41.445 116.625l-.524.888.157.125.505-.853.165-.277-.165-.054-.005.008-.026-.015-.107.178z" fill="#4D217A"/><path d="M41.437 116.37l-.967.494-.125.198.097.077 1.003-.514.107-.178-.115-.077z" fill="#4D217A"/><path d="M40.317 117.05l-.003.028-.035.017-.168.217.175.137.459.359.16.125.56.44.112.086.013-.015.196-.252-.199-.155-.509-.4-.158-.124-.478-.374-.097-.077-.028-.012zM40.302 113.958l-1.269 15.881.245-.114-.184.056.344-4.491.003-.04.007-.089.25-3.272.196-2.593.16-2.096.13-1.715.118-1.527z" fill="#4D217A"/><path d="M40.054 117.2l-.16 2.096.25-.114.01-.005v-.008l.005-.051-.158-.051.186-.312.1-1.306-.176-.137.168-.217-.225.105zM40.345 116.688l-.188.296.16.066.028.013.125-.199.504-.796-.168-.11-.461.73z" fill="#4D217A"/><path d="M40.444 115.358l-.053.03-.148.201.176.115.387.254.168.11.463.302.115.077.025.015.006-.008.028-.038.165-.229-.196-.127-.425-.28-.168-.109-.395-.26-.11-.071-.017.028-.02-.01z" fill="#4D217A"/><path d="M41.6 114.79l.143.059-.165.262.002.949.197.127-.166.229.23-.127v-.122l-.006-1.649v.125l-.214.117-.02.03z" fill="#4D217A"/><path d="M41.417 114.991l-.43.68.168.109.423-.669.165-.262-.142-.059-.026.039-.04-.023-.118.185zM40.184 115.485l-.13 1.715.225-.104.035-.018.003-.028-.16-.066.188-.295.074-.985-.176-.115.148-.201-.207.097zM41.889 128.382v-.028l-.242.135v.028l.242-.135zM39.4 129.056l-.168.369.137.008.084.005 1.118-2.463-.137-.196-1.034 2.277zM40.07 121.606l-.059.105-.048-.013-.008.099-.26.125.003-.033-.25 3.272-.007.089-.003.041.257-.122.013-.14v-.013l-.15-.02.178-.356.183-2.392-.168-.196.222-.257.071.081 1.46-.743.048-.094.214.028-.163.321.012 2.297.194.222-.191.216v.064l.26-.143-.003-.122-.013-3.109-.26.145v-.028l-.022.028-.084-.079-1.426.727z" fill="#4D217A"/><path d="M39.726 125.194l-.232.244.163.234.777 1.107.137.196 1.022 1.453.043-.046.188-.198-.19-.273-.902-1.287-.138-.196-.825-1.173-.043-.061z" fill="#4D217A"/><path d="M39.438 125.291l-.344 4.491.186-.089.074-.036.015-.224-.137-.008.168-.368.257-3.385-.163-.234.232-.244.043.061 1.767-.901.016-.03.04.002.026-.013v.013l.155.01-.153.334.013 3.241.191.273-.188.198v.112l.252-.14-.01-4.432v.122l-.26.142v-.063l-.033.038-.056-.064-1.737.888-.02.041-.049-.008-.015.01-.013.14-.257.123zM41.473 118.627l-.636 1.16.152.143.604-1.102.163-.295-.204-.048-.079.142zM42.212 113.661l-.02-.031.646.344-.017.01-.609-.323z" fill="#4D217A"/><path d="M43.007 113.877l.185.28-.168.097-.316.183-.167.097-.365.208-.122.071-.038.023-.026-.038-.02-.033-.142-.211.19-.109.342-.196.168-.097.293-.168.017-.01.169-.097z" fill="#4D217A"/><path d="M42.176 114.742l.762.405.13.203-.105.072-.797-.423-.112-.186.122-.071zM43.078 115.009l.18.28-.152.079-.02.01-.018-.028-.13-.203-.397-.614.168-.096.369.572zM42.212 113.661l.316.491-.168.097-.339-.525-.163-.251.173-.092.16.249.021.031z" fill="#4D217A"/><path d="M43.24 113.925l.003.039.112 1.531-.198-.099-.051-.025.153-.082-.181-.28-.054-.755.168-.097-.185-.28-.169.097-.646-.344-.16-.249-.174.092.163.251-.002.721-.191.109.142.211-.206-.117.002-.122.006-1.379 1.469.778zM42.052 124.4l.909 2.084-.133.196-.858-1.962-.145-.336.148-.01h.025l.038-.003.016.031zM43.789 124.688l.173.356-.145.02-.016.003-.046.007-.02-.04-.889-1.835.14-.168.803 1.657zM42.085 121.166l.743 1.54-.14.168-.703-1.453-.155-.321.206-.03.049.096z" fill="#4D217A"/><path d="M43.56 121.83l.215.257-.165.196-.624.748-.14.168-.79.944-.053.064-.03-.038-.184-.219.186-.222.713-.854.14-.168.662-.794.07-.082zM43.544 121.365l.176.333-.148.036-.048.01-.056-.104-.724-1.372.146-.145.654 1.242zM43.345 119.154l.036-.013.002.051-.01-.013-.091.089-1.172-.621-.074-.139-.196.045.155.298-.007 1.687-.189.186.189.236v.028l-.25-.142.01-2.651v.127l.253.145.01.015.11-.089 1.133.603.091.158z" fill="#4D217A"/><path d="M43.373 119.179l.01.013.003.01.01.005.186.237-.168.163-.525.516-.145.145-.654.641-.082.079-.02-.028-.189-.236.189-.184.593-.582.145-.143.556-.547.091-.089z" fill="#4D217A"/><path d="M43.827 121.925l.003.033-.252-.125-.006-.099.148-.036-.176-.333-.13-1.758.169-.163-.186-.237.239.115.191 2.603zM43.353 118.777l.18.313-.152.051-.035.013-.092-.158-.591-1.043.153-.125.537.949zM41.98 116.429l.026.038-.158.053.158.28-.005 1.257-.189.156.189.254-.252-.145v-.125l.01-2.02v.125l.221.127z" fill="#4D217A"/><path d="M42.138 116.64l.507.891-.153.124-.486-.855-.158-.28.158-.053.007.01.023-.018.102.181z" fill="#4D217A"/><path d="M42.148 116.386l.932.493.12.199-.092.076-.97-.514-.102-.181.112-.073z" fill="#4D217A"/><path d="M43.228 117.067l.003.026.033.018.163.219-.168.137-.444.361-.152.125-.543.44-.11.089-.01-.015-.188-.255.189-.155.491-.402.153-.124.463-.377.092-.076.028-.011zM43.244 113.963l1.223 15.945-.235-.114.178.053-.33-4.508-.006-.041-.005-.089-.242-3.285-.19-2.602-.156-2.104-.125-1.723-.112-1.532z" fill="#4D217A"/><path d="M43.48 117.218l.156 2.104-.24-.115-.01-.005-.002-.01-.003-.051.153-.051-.18-.313-.095-1.31.168-.137-.163-.219.217.107zM43.203 116.701l.18.298-.155.069-.028.01-.12-.199-.486-.799.163-.112.446.733z" fill="#4D217A"/><path d="M43.106 115.368l.05.028.143.204-.168.114-.374.255-.163.112-.446.305-.112.074-.023.018-.007-.011-.026-.038-.16-.229.188-.13.413-.28.16-.109.382-.259.105-.072.017.028.02-.01z" fill="#4D217A"/><path d="M41.99 114.798l-.137.059.16.262-.005.951-.188.13.16.229-.221-.127v-.125l.005-1.651v.122l.206.117.02.033z" fill="#4D217A"/><path d="M42.166 114.999l.415.682-.16.109-.408-.671-.16-.262.137-.059.026.038.038-.023.112.186zM43.356 115.495l.125 1.723-.217-.107-.033-.018-.003-.025.156-.069-.181-.298-.071-.987.168-.115-.143-.203.199.099zM41.71 128.443v-.028l.237.137v.028l-.237-.137zM44.115 129.12l.163.371-.135.008-.08.005-1.082-2.473.135-.196.999 2.285zM43.467 121.64l.056.106.049-.012.005.099.252.125-.003-.033.242 3.285.005.089.005.04-.252-.122-.01-.14v-.012l.145-.021-.173-.356-.178-2.405.166-.196-.217-.257-.069.082-1.405-.746-.049-.096-.206.03.155.321-.01 2.308-.186.221.184.219v.063l-.25-.142v-.125l.015-3.119.25.142v-.028l.02.028.082-.079 1.377.731z" fill="#4D217A"/><path d="M43.798 125.242l.225.247-.158.234-.749 1.112-.135.196-.985 1.46-.041-.045-.183-.201.185-.273.871-1.292.133-.196.797-1.178.04-.064z" fill="#4D217A"/><path d="M44.078 125.339l.332 4.509-.181-.087-.072-.035-.015-.227.135-.007-.163-.372-.25-3.397.159-.234-.225-.247-.04.064-1.707-.906-.015-.031-.038.003-.025-.013v.013l-.148.01.145.336-.013 3.255-.186.272.184.201v.109l-.245-.14.013-4.45v.125l.25.142v-.064l.03.039.054-.064 1.678.891.02.04.046-.007.015.01.01.14.252.122zM42.11 118.647l.616 1.168-.145.143-.585-1.107-.156-.298.196-.046.074.14zM40.67 114.35l-.02-.033.657.382-.02.01-.616-.359z" fill="#4D217A"/><path d="M41.49 114.605l.174.3-.183.094-.347.178-.183.097-.402.209-.135.068-.044.021-.023-.041-.02-.033-.132-.227.209-.106.376-.194.184-.097.323-.165.02-.01.184-.094zM40.549 115.483l.771.447.12.217-.115.071-.807-.468-.104-.199.135-.068z" fill="#4D217A"/><path d="M41.478 115.793l.168.298-.168.076-.02.01-.018-.03-.12-.217-.369-.656.184-.097.343.616zM40.67 114.35l.294.524-.184.097-.315-.56-.15-.269.188-.089.148.264.02.033z" fill="#4D217A"/><path d="M41.735 114.663v.038l-.002 1.609-.201-.11-.054-.028.168-.081-.168-.298.003-.794.183-.094-.173-.3-.184.094-.657-.382-.147-.264-.189.089.15.269-.06.754-.21.106.133.227-.206-.13.01-.13.117-1.44 1.487.865zM39.654 125.586l.798 2.211-.156.203-.751-2.084-.127-.358.155-.003h.028l.043-.003.01.034zM41.465 125.947l.153.379-.153.018h-.017l-.049.008-.017-.046-.792-1.949.16-.171.715 1.761zM39.945 122.202l.665 1.638-.16.171-.63-1.545-.137-.341.219-.025.043.102z" fill="#4D217A"/><path d="M41.45 122.95l.206.275-.188.201-.719.76-.16.171-.906.962-.062.063-.03-.04-.176-.234.212-.227.822-.87.16-.171.762-.809.079-.081zM41.468 122.459l.16.356-.16.033-.05.01-.052-.112-.654-1.463.165-.145.591 1.321zM41.435 120.138l.038-.01v.054l-.013-.016-.104.092-1.184-.689-.067-.151-.211.041.14.316-.14 1.768-.214.188.178.252-.002.031-.252-.16.221-2.774-.01.132.252.161.013.017.122-.089 1.149.67.084.167z" fill="#4D217A"/><path d="M41.46 120.166l.013.016v.007l.01.008.178.254-.19.166-.594.521-.166.145-.738.652-.092.079-.023-.031-.178-.252.214-.188.67-.588.165-.145.627-.552.104-.092z" fill="#4D217A"/><path d="M41.723 123.057v.033l-.255-.137v-.105l.16-.033-.16-.356.003-1.842.19-.166-.177-.254.244.13-.005 2.73zM41.473 119.744l.163.336-.163.048-.038.011-.084-.168-.542-1.112.17-.125.494 1.01zM40.207 117.241l.026.038-.17.053.144.298-.104 1.315-.214.156.178.272-.252-.16.01-.13.168-2.115-.01.13.224.143z" fill="#4D217A"/><path d="M40.358 117.467l.466.949-.171.125-.446-.911-.145-.298.17-.053.006.012.028-.017.092.193z" fill="#4D217A"/><path d="M40.388 117.2l.945.549.112.212-.104.076-.983-.57-.092-.193.122-.074z" fill="#4D217A"/><path d="M41.475 117.95v.028l.034.021.155.231-.189.14-.496.364-.17.125-.607.442-.122.09-.013-.018-.178-.273.214-.155.55-.404.17-.125.517-.379.105-.077.03-.01zM41.736 114.701l.033 16.734-.237-.13.18.066.006-4.732v-.043l.002-.092.003-3.447.005-2.73.003-2.211.002-1.807.003-1.608z" fill="#4D217A"/><path d="M41.73 118.116l-.002 2.211-.244-.13-.01-.007v-.062l.162-.048-.163-.336.003-1.374.188-.14-.155-.231.222.117zM41.476 117.569l.168.318-.168.063-.03.011-.113-.212-.448-.855.178-.109.413.784z" fill="#4D217A"/><path d="M41.478 116.167l.053.033.135.216-.188.115-.415.254-.178.11-.497.305-.122.074-.028.018-.005-.013-.026-.038-.15-.244.209-.13.456-.28.18-.11.423-.259.115-.071.018.03.02-.01z" fill="#4D217A"/><path d="M40.347 115.531l-.15.058.15.28-.081.998-.21.13.151.244-.224-.143.01-.129.138-1.731-.01.13.206.13.02.033z" fill="#4D217A"/><path d="M40.518 115.75l.385.727-.181.11-.375-.718-.15-.28.15-.058.023.04.044-.02.104.199zM41.733 116.309l-.002 1.807-.222-.117-.033-.02v-.028l.168-.064-.168-.318.002-1.038.189-.115-.135-.216.201.109zM38.977 129.806l.003-.028.239.151-.003.028-.239-.151zM41.46 130.598l.14.394-.142.005h-.082l-.947-2.626.158-.201.873 2.428zM41.366 122.746l.05.112.052-.01v.104l.254.138v-.033l-.005 3.448v.134l-.252-.137v-.158l.153-.018-.153-.379.003-2.521.188-.201-.206-.275-.08.081-1.425-.829-.044-.102-.219.025.138.341-.194 2.415-.21.227.175.234-.005.066-.252-.158.01-.13.26-3.267.252.16.002-.03.023.03.092-.078 1.393.811z" fill="#4D217A"/><path d="M41.432 126.527l.216.267-.186.239-.876 1.138-.157.201-1.154 1.493-.04-.048-.176-.216.216-.28L40.296 128l.156-.203.931-1.204.049-.066z" fill="#4D217A"/><path d="M41.717 126.639l-.005 4.733-.18-.099-.075-.038v-.237l.143-.005-.14-.395.002-3.565.186-.239-.216-.267-.049.066-1.729-1.007-.01-.034-.043.003-.026-.015-.002.015-.155.003.127.358-.27 3.405-.216.28.175.216-.007.117-.247-.155.364-4.659-.01.127.252.16.005-.066.03.041.061-.064 1.699.988.018.045.048-.007.018.01v.148l.252.137zM40.172 119.568l.557 1.242-.165.145-.53-1.18-.14-.316.211-.041.067.15zM42.81 114.35l.02-.033-.656.382.02.01.616-.359z" fill="#4D217A"/><path d="M41.99 114.605l-.173.3.184.094.346.178.186.097.402.209.133.068.043.021.023-.041.02-.033.133-.227-.21-.106-.376-.194-.184-.097-.323-.165-.02-.01-.184-.094zM42.935 115.483l-.771.447-.123.217.115.071.807-.468.105-.199-.133-.068z" fill="#4D217A"/><path d="M42.003 115.793l-.168.298.168.076.02.01.018-.03.123-.217.369-.656-.186-.097-.344.616zM42.81 114.35l-.292.524.183.097.316-.56.15-.269-.188-.089-.148.264-.02.033z" fill="#4D217A"/><path d="M41.746 114.663v.038l.002 1.609.204-.11.051-.028-.168-.081.168-.298-.002-.794-.184-.094.173-.3.184.094.657-.382.147-.264.189.089-.15.269.06.754.21.106-.133.227.206-.13-.01-.13-.117-1.44-1.487.865zM43.827 125.586l-.797 2.211.155.203.751-2.084.13-.358-.158-.003h-.028l-.04-.003-.013.034zM42.016 125.947l-.153.379.156.018h.015l.048.008.018-.046.792-1.949-.16-.171-.716 1.761zM43.536 122.202l-.664 1.638.16.171.63-1.545.137-.341-.22-.025-.043.102z" fill="#4D217A"/><path d="M42.031 122.95l-.206.275.188.201.718.76.16.171.907.962.062.063.03-.04.178-.234-.213-.227-.823-.87-.16-.171-.762-.809-.079-.081zM42.013 122.459l-.16.356.16.033.051.01.051-.112.655-1.463-.166-.145-.59 1.321zM42.05 120.138l-.042-.01.003.054.01-.016.105.092 1.184-.689.068-.151.21.041-.14.316.14 1.768.213.188-.178.252.002.031.252-.16-.219-2.774.008.132-.252.161-.013.017-.122-.089-1.148.67-.082.167z" fill="#4D217A"/><path d="M42.021 120.166l-.01.016v.007l-.01.008-.181.254.19.166.594.521.166.145.74.652.092.079.02-.031.179-.252-.214-.188-.67-.588-.165-.145-.627-.552-.104-.092z" fill="#4D217A"/><path d="M41.759 123.057v.033l.254-.137v-.105l-.16-.033.16-.356-.002-1.842-.191-.166.18-.254-.244.13.003 2.73zM42.008 119.744l-.163.336.163.048.041.011.082-.168.544-1.112-.173-.125-.494 1.01zM43.274 117.241l-.025.038.173.053-.148.298.105 1.315.214.156-.179.272.253-.16-.01-.13-.169-2.115.01.13-.224.143z" fill="#4D217A"/><path d="M43.124 117.467l-.466.949.17.125.446-.911.148-.298-.173-.053-.005.012-.028-.017-.092.193z" fill="#4D217A"/><path d="M43.093 117.2l-.945.549-.112.212.105.076.983-.57.091-.193-.122-.074z" fill="#4D217A"/><path d="M42.006 117.95v.028l-.033.021-.156.231.189.14.496.364.173.125.604.442.122.09.013-.018.178-.273-.214-.155-.55-.404-.17-.125-.517-.379-.105-.077-.03-.01zM41.746 114.701l-.033 16.734.237-.13-.181.066-.005-4.732v-.135l-.005-3.447-.003-2.73-.005-2.211-.002-1.807-.003-1.608z" fill="#4D217A"/><path d="M41.751 118.116l.005 2.211.245-.13.01-.007v-.008l-.003-.054-.163-.048.163-.336-.002-1.374-.189-.14.156-.231-.222.117zM42.006 117.569l-.168.318.168.063.03.011.112-.212.449-.855-.179-.109-.412.784z" fill="#4D217A"/><path d="M42.003 116.167l-.05.033-.136.216.186.115.415.254.178.11.497.305.122.074.028.018.005-.013.026-.038.15-.244-.209-.13-.456-.28-.18-.11-.423-.259-.115-.071-.017.03-.02-.01z" fill="#4D217A"/><path d="M43.134 115.531l.15.058-.147.28.079.998.209.129-.15.245.224-.143-.01-.13-.138-1.73.01.13-.206.13-.02.033z" fill="#4D217A"/><path d="M42.964 115.75l-.385.727.18.11.378-.718.147-.28-.15-.058-.023.04-.043-.02-.104.199zM41.749 116.309l.002 1.807.222-.117.033-.02v-.028l-.168-.064.168-.318-.003-1.038-.186-.115.135-.216-.203.109zM44.505 129.806l-.003-.028-.237.151.003.028.237-.151zM42.024 130.598l-.143.394.143.005h.084l.944-2.626-.155-.201-.873 2.428zM42.115 122.746l-.05.112-.052-.01v.104l-.254.138v-.033l.005 3.448v.134l.255-.137v-.158l-.156-.018.153-.379-.003-2.521-.188-.201.206-.275.08.081 1.425-.829.044-.102.218.025-.137.341.194 2.415.213.227-.178.234.008.066.25-.158-.01-.13-.26-3.267-.253.16-.002-.03-.02.03-.092-.078-1.396.811z" fill="#4D217A"/><path d="M42.049 126.527l-.216.267.186.239.878 1.138.155.201 1.154 1.493.04-.048.176-.216-.216-.28L43.185 128l-.156-.203-.932-1.204-.048-.066z" fill="#4D217A"/><path d="M41.764 126.639l.005 4.733.18-.099.075-.038v-.237l-.143-.005.143-.395-.005-3.565-.186-.239.216-.267.048.066 1.73-1.007.012-.034.04.003.026-.015.003.015.158.003-.13.358.27 3.405.216.28-.175.216.01.117.244-.155-.361-4.659.007.127-.25.16-.007-.066-.03.041-.062-.064-1.698.988-.018.045-.048-.007-.015.01v.148l-.255.137zM43.31 119.568l-.558 1.242.166.145.53-1.18.14-.316-.21-.041-.068.15zM42.94 113.06c.666.384.67.998.008 1.382-.662.384-1.722.384-2.39 0-.649-.374-.651-.99.009-1.372.662-.384 1.722-.384 2.371-.01h.003z" fill="#4D217A"/><path d="M42.94 112.931c.666.384.67.997.008 1.381s-1.722.384-2.39 0c-.666-.384-.651-.99.009-1.371.662-.384 1.722-.384 2.371-.01h.003zM54.949 137.897l10.635-6.134-5.316-3.068-10.636 6.134 5.317 3.068z" fill="#4D217A"/><path d="M54.946 133.605l10.635-6.134-5.316-3.066-10.635 6.134 5.316 3.066z" fill="#4D217A"/><path fill-rule="evenodd" clip-rule="evenodd" d="M65.581 127.471l.003 4.294-10.635 6.132-.003-4.292 10.635-6.134z" fill="#4D217A"/><path fill-rule="evenodd" clip-rule="evenodd" d="M49.63 130.539l.002 4.292 5.317 3.066-.003-4.292-5.316-3.066z" fill="#4D217A"/><path d="M56.011 135.401v.044l.532-.306v-1.842l-.532.308v1.796zM57.59 134.503v.044l.533-.308v-1.84l-.533.308v1.796zM59.172 133.603v.043l.53-.305v-1.843l-.53.308v1.797zM60.752 132.705v.043l.532-.308v-1.84l-.532.308v1.797zM62.331 131.804v.043l.532-.305V129.7l-.532.307v1.797zM64.407 128.822l-.494.287V130.949l.53-.308v-1.84l-.036.021zM46.995 131.241l-.058 4.545c0 .178-.12.359-.357.496-.479.278-1.245.278-1.726 0-.235-.135-.352-.313-.352-.493l.059-4.545c0 .181.117.359.351.494.481.277 1.248.277 1.727 0 .236-.138.356-.318.356-.497z" fill="#4D217A"/><path d="M46.634 130.74c.48.277.483.723.005 1-.48.278-1.246.278-1.727 0-.468-.27-.47-.715.005-.992.479-.278 1.245-.278 1.717-.008zM48.977 132.404l-.059 4.545c0 .178-.12.359-.356.496-.479.277-1.245.277-1.727 0-.234-.135-.351-.313-.351-.494l.059-4.544c0 .18.117.358.351.493.481.278 1.248.278 1.727 0 .236-.137.356-.318.356-.496z" fill="#4D217A"/><path d="M48.615 131.9c.482.278.484.723.005 1-.478.278-1.245.278-1.726 0-.469-.269-.471-.715.005-.992.479-.277 1.245-.277 1.716-.008z" fill="#4D217A"/><path d="M48.615 131.9c.482.278.484.723.005 1-.478.278-1.245.278-1.726 0-.469-.269-.471-.715.005-.992.479-.277 1.245-.277 1.716-.008zM50.961 133.564l-.058 4.545c0 .178-.12.359-.357.496-.478.277-1.245.277-1.726 0-.234-.135-.352-.313-.352-.494l.059-4.544c0 .181.117.359.351.494.482.277 1.248.277 1.727 0 .237-.138.356-.319.356-.497z" fill="#4D217A"/><path d="M50.597 133.06c.481.278.484.723.005 1.001-.478.277-1.245.277-1.726 0-.469-.27-.471-.716.005-.993.479-.277 1.245-.277 1.716-.008z" fill="#4D217A"/><path d="M50.597 133.06c.481.278.484.723.005 1.001-.478.277-1.245.277-1.726 0-.469-.27-.471-.716.005-.993.479-.277 1.245-.277 1.716-.008zM52.943 134.724l-.058 4.545c0 .178-.12.359-.357.496-.479.278-1.245.278-1.726 0-.235-.135-.352-.313-.352-.493l.059-4.545c0 .181.117.359.351.494.482.277 1.248.277 1.727 0 .236-.138.356-.318.356-.497z" fill="#4D217A"/><path d="M52.579 134.221c.481.277.484.722.005 1-.479.277-1.245.277-1.726 0-.469-.27-.471-.715.005-.993.479-.277 1.245-.277 1.716-.007zM42.563 112.101l-.002 1.453-.751.435.005-1.453.748-.435zM41.815 112.536l-.006 1.453-.779-.45.003-1.453.782.45z" fill="#4D217A"/><path d="M42.563 112.101l-.749.435-.781-.45.75-.435.78.45z" fill="#4D217A"/></g></svg>