<svg width="73" height="20" viewBox="0 0 73 20" fill="none" xmlns="http://www.w3.org/2000/svg"><path d="M.06 14.52l.32-2.12c1.66.64 2.62.86 3.72.86 1.48 0 2.4-.76 2.4-2 0-1.02-.38-1.36-2.68-2.34-1.64-.7-2.12-.94-2.68-1.38C.38 6.92 0 6.08 0 5 0 2.5 1.76.94 4.62.94c1.22 0 2.32.2 3.88.7L8.02 3.7c-1.36-.58-2.32-.8-3.3-.8-1.34 0-2.2.68-2.2 1.74 0 .92.5 1.36 2.5 2.18 1.66.68 2.32 1.02 2.9 1.5.74.64 1.14 1.58 1.14 2.76 0 2.62-1.8 4.14-4.88 4.14-1.46 0-2.66-.2-4.12-.7zm17.236.48l-.08-1.16c-.98 1-1.82 1.38-3.16 1.38-2.06 0-3.28-1.16-3.28-3.08 0-1.24.56-2.24 1.54-2.82.68-.38 1.66-.56 3.1-.56.4 0 .74.02 1.66.06v-.2c0-1.5-.78-2.32-2.26-2.32-.88 0-1.72.26-2.76.86l-.62-1.68c1.24-.62 2.36-.9 3.7-.9 1.6 0 2.84.46 3.52 1.34.58.72.76 1.5.76 3.44v3.04c.02 1.3.06 2.22.1 2.6h-2.22zm-.22-2.8v-1.92c-.46-.04-.7-.04-1.06-.04-1.92 0-2.82.58-2.82 1.84 0 .94.62 1.54 1.58 1.54.9 0 1.64-.46 2.3-1.42zM23.27 15V6.58h-1.62V4.8h1.62v-.68c0-1.3.16-2.1.56-2.72.52-.84 1.42-1.26 2.68-1.26.56 0 1.14.08 1.86.28l-.2 1.86c-.42-.2-.78-.28-1.18-.28-1 0-1.38.66-1.38 2.34v.46h2.34v1.78h-2.34V15h-2.34zm15.487-4.36h-7.12c.18 1.92 1.12 2.82 2.94 2.82 1.02 0 2-.32 3.04-.98l.82 1.72c-1.22.7-2.44 1.02-3.92 1.02-3.42 0-5.34-1.9-5.34-5.3 0-3.32 1.86-5.34 4.88-5.34 2.12 0 3.58.88 4.2 2.5.36.94.48 1.8.5 3.56zM31.637 9h4.72c-.04-1.72-.88-2.7-2.3-2.7s-2.34 1.02-2.42 2.7zM41.65 6.58h-1.64V4.8h1.64V2.58l2.34-.44V4.8h2.32v1.78h-2.32v4.74c0 1.5.34 2.02 1.36 2.02.34 0 .6-.06 1.1-.24l.22 1.78c-.74.24-1.38.34-2.08.34-1.16 0-1.98-.36-2.44-1.06-.36-.54-.5-1.3-.5-2.72V6.58zm9.501 8.26L47.05 4.8h2.48l2.04 5.16c.38.92.54 1.4.86 2.34.4-1.2.44-1.3.86-2.44l1.92-5.06h2.28l-4.12 10.42c-1.38 3.46-2.22 4.32-4.3 4.32-.68 0-1.22-.1-2.04-.36l.4-1.82c.54.22.86.3 1.28.3 1.08 0 1.7-.72 2.44-2.82zm8.386-2.74c.88 0 1.54.66 1.54 1.56s-.66 1.56-1.54 1.56c-.9 0-1.54-.66-1.54-1.58 0-.88.66-1.54 1.54-1.54zm5.762 0c.88 0 1.54.66 1.54 1.56s-.66 1.56-1.54 1.56c-.9 0-1.54-.66-1.54-1.58 0-.88.66-1.54 1.54-1.54zm5.762 0c.88 0 1.54.66 1.54 1.56s-.66 1.56-1.54 1.56c-.9 0-1.54-.66-1.54-1.58 0-.88.66-1.54 1.54-1.54z" fill="#fff"/></svg>