<svg width="166" height="159" viewBox="0 0 166 159" fill="none" xmlns="http://www.w3.org/2000/svg"><g opacity=".09" fill="#000"><path d="M151.447 112.888a31.232 31.232 0 01-3.292 2.781c-6.568 4.825-13.279 4.881-13.562 4.881l-27.369-.099H60.687l7.654 24.211c.016.048 1.919 5.729 7.785 9.926 5.211 3.729 9.67 4.328 11.377 4.411h34.819c8.415 0 15.817-5.352 18.418-13.318l10.706-32.793h.001z"/><path d="M134.594 117.748c.065 0 6.08-.064 11.89-4.333 5.596-4.112 7.53-8.534 7.999-9.824l10.561-32.352c2.601-7.966-.226-16.625-7.034-21.55l-28.072-20.297a30.012 30.012 0 011.673 4.022c2.591 7.736.559 14.082.471 14.349l-8.541 25.855-14.376 44.039 25.429.092v-.001zM15.366 100.636c-2.116 6.644-1.089 11.272-.712 12.563l.213.652 10.392 31.831C27.859 153.648 35.26 159 43.677 159H77.92a30.545 30.545 0 01-3.436-2.137c-6.653-4.76-8.74-11.088-8.826-11.356l-8.23-26.037-14.376-44.034L22.426 90.18c-.043.031-4.877 3.6-7.059 10.455z"/><path d="M128.941 34.299c-2.232-6.662-5.974-9.905-7.083-10.75h-.057l-.356-.298L94.384 3.68A19.308 19.308 0 0083 0a19.308 19.308 0 00-11.384 3.681L43.525 23.995c1.33-.203 2.785-.33 4.36-.342h.207c8.08 0 13.43 3.818 13.653 3.98l22.086 16.068 37.64 27.217 7.937-24.03c.017-.052 1.817-5.767-.467-12.59z"/><path d="M20.78 87.907l22.194-15.865L80.61 44.827 60.084 29.894c-.044-.032-4.87-3.442-11.993-3.442h-.184c-7.087.058-11.353 2.62-12.491 3.405l-.293.212-.06.043L7.992 49.69C1.183 54.612-1.645 63.272.955 71.239l10.694 32.754a31.533 31.533 0 011.035-4.205c2.476-7.774 7.869-11.717 8.097-11.882v.001z"/></g><path d="M151.447 112.888a31.232 31.232 0 01-3.292 2.781c-6.568 4.825-13.279 4.881-13.562 4.881l-27.369-.099H60.687l7.654 24.211c.016.048 1.919 5.729 7.785 9.926 5.211 3.729 9.67 4.328 11.377 4.411h34.819c8.415 0 15.817-5.352 18.418-13.318l10.707-32.793z" fill="#47B972"/><path d="M131.318 140.722v-5.624h3.56v.991h-2.292v1.284h2.178v.992h-2.178v1.366H135v.991h-3.682zM130.071 139.397l.366 1.008c-.666.325-1.065.415-1.788.415-.927 0-1.577-.22-2.073-.707-.512-.504-.78-1.236-.78-2.154 0-1.845 1.048-2.959 2.788-2.959.642 0 1.113.106 1.78.398l-.423.959c-.455-.252-.861-.365-1.284-.365-.975 0-1.552.715-1.552 1.91 0 1.211.609 1.926 1.625 1.926.464 0 .789-.106 1.341-.431zM119.875 140.722v-5.624h1.398l1.496 2.527c.3.521.455.813.691 1.325-.025-.309-.025-.479-.025-1.073v-2.779h1.219v5.624h-1.373l-1.406-2.357a15.91 15.91 0 01-.805-1.504c.024.464.024.61.024 1.342v2.519h-1.219zM117.23 139.381h-2.122l-.479 1.341h-1.26l2.146-5.624h1.325l2.219 5.624h-1.341l-.488-1.341zm-.333-.951l-.439-1.219c-.122-.342-.155-.431-.293-.878-.089.341-.114.406-.284.878l-.439 1.219h1.455zM106.201 140.722v-5.624h1.878l.975 3.039c.114.374.196.643.326 1.138.13-.487.203-.764.325-1.138l.983-3.039h1.862v5.624h-1.22v-4.552c-.122.488-.146.561-.309 1.073l-1.129 3.479h-1.081l-1.098-3.389a19.503 19.503 0 01-.341-1.163v4.552h-1.171zM100.932 140.722v-5.624h2.032c.708 0 1.106.089 1.415.317.349.26.553.69.553 1.194 0 .724-.383 1.236-1.049 1.423.317.13.39.236.797 1.113l.707 1.577h-1.35l-.455-1.073c-.398-.967-.585-1.178-1.089-1.195h-.293v2.268h-1.268zm1.236-3.219h.439c.715 0 1.057-.243 1.057-.747 0-.236-.09-.439-.244-.553-.171-.114-.366-.154-.813-.154h-.439v1.454zM97.085 135c.895 0 1.553.268 2.033.845.447.537.674 1.22.674 2.065 0 .918-.276 1.666-.805 2.203-.463.479-1.089.707-1.91.707-.894 0-1.552-.277-2.032-.846-.455-.544-.674-1.219-.674-2.097 0-.877.284-1.65.804-2.17.464-.471 1.09-.707 1.91-.707zm-.008.992c-.853 0-1.398.739-1.398 1.894 0 1.202.537 1.942 1.398 1.942.862 0 1.407-.74 1.407-1.918 0-1.179-.545-1.918-1.407-1.918zM89.998 140.722v-5.624h3.576v.991h-2.308v1.284h2.194v.992h-2.194v2.357h-1.269zM84.728 140.722v-5.624h2.032c.708 0 1.106.089 1.415.317.35.26.553.69.553 1.194 0 .724-.382 1.236-1.049 1.423.317.13.39.236.796 1.113l.708 1.577h-1.35l-.455-1.073c-.398-.967-.585-1.178-1.089-1.195h-.293v2.268h-1.268zm1.236-3.219h.439c.715 0 1.056-.243 1.056-.747 0-.236-.089-.439-.243-.553-.171-.114-.366-.154-.813-.154h-.44v1.454zM79.864 140.722v-5.624h3.56v.991h-2.292v1.284h2.179v.992h-2.179v1.366h2.414v.991h-3.682zM75 140.722v-5.624h1.585c.984 0 1.398.081 1.772.365.39.293.61.781.61 1.366 0 .569-.212 1.057-.594 1.365-.35.269-.796.382-1.577.382h-.528v2.146H75zm1.236-3.097h.365c.431 0 .57-.016.756-.113.22-.106.342-.334.342-.643 0-.3-.122-.544-.326-.674-.195-.114-.357-.146-.772-.146h-.365v1.576z" fill="#fff"/><path d="M134.594 117.748c.065 0 6.08-.064 11.89-4.333 5.596-4.112 7.53-8.534 7.999-9.824l10.561-32.352c2.601-7.966-.226-16.625-7.034-21.55l-28.072-20.297a30.012 30.012 0 011.673 4.022c2.591 7.736.559 14.082.471 14.349l-8.541 25.855-14.376 44.039 25.429.092v-.001z" fill="#00AAAD"/><path d="M149.955 63.06l-2.265-.711-3.917 1.084.454-1.444 1.745-.451c.314-.077.474-.114.846-.182a8.146 8.146 0 01-.596-.642l-1.169-1.358.426-1.356 2.601 3.104 2.266.711-.391 1.245zM148.261 68.459l-4.548-1.428-.501 1.596-.973-.306 1.4-4.46.973.306-.508 1.62 4.547 1.427-.39 1.245zM147.117 72.103l-5.521-1.733.391-1.244 5.52 1.733-.39 1.244zM145.755 76.441l-5.521-1.733.391-1.244 4.547 1.427.744-2.37.973.306-1.134 3.614zM144.921 79.097l-5.52-1.733.39-1.245 5.521 1.733-.391 1.245zM143.305 84.245l-5.52-1.733.623-1.987c.246-.782.423-1.094.76-1.33.35-.25.859-.309 1.33-.161.614.193.941.602.96 1.213.382-.546.902-.725 1.548-.522.511.16.909.513 1.059.955.134.383.104.813-.093 1.443l-.667 2.122zm-2.826-2.22l.18-.574c.118-.375.141-.56.082-.737-.058-.176-.238-.329-.477-.404-.24-.075-.475-.052-.65.06-.17.121-.265.284-.395.7l-.16.51 1.42.445zm2.314.727l.185-.59c.115-.368.136-.519.104-.695-.046-.216-.248-.411-.527-.499-.255-.08-.522-.04-.707.102-.159.117-.257.288-.357.607l-.19.606 1.492.469zM142.472 86.9l-5.521-1.733.391-1.245 5.521 1.734-.391 1.244zM140.436 93.385l-2.191-2.931-3.297 1.095.453-1.444 2.206-.719-1.394-1.866.445-1.42 2.092 2.856 3.437-1.147-.471 1.5-2.254.73 1.435 1.878-.461 1.468zM139.103 97.633l-5.521-1.733 1.097-3.494.973.305-.706 2.25 1.261.396.671-2.138.973.305-.671 2.138 1.34.421.744-2.37.973.306-1.134 3.614zM137.741 101.971l-5.521-1.733.391-1.244 4.547 1.427.744-2.37.974.306-1.135 3.614zM136.286 106.605l-5.52-1.733 1.101-3.51.974.306-.711 2.265 1.26.396.676-2.154.974.305-.677 2.155 2.314.726-.391 1.244z" fill="#fff"/><path d="M15.366 100.636c-2.116 6.644-1.089 11.272-.712 12.563l.213.652 10.392 31.831C27.859 153.648 35.26 159 43.677 159H77.92a30.545 30.545 0 01-3.436-2.137c-6.653-4.76-8.74-11.088-8.826-11.356l-8.23-26.037-14.376-44.034L22.426 90.18c-.043.031-4.877 3.6-7.059 10.455z" fill="#BFA500"/><path d="M43.09 142.95l2.175-.703 2.472-3.034.449 1.387-1.12 1.327a11.09 11.09 0 01-.563.614c.376.064.539.096.826.173l1.674.415.421 1.302-3.773-.989-2.176.704-.386-1.196zM43.532 140.054l-.838.652c-.51-.53-.716-.878-.936-1.56-.283-.873-.274-1.553.035-2.169.319-.636.927-1.112 1.793-1.392 1.739-.562 3.108.087 3.638 1.726.196.606.24 1.082.167 1.8l-1.033-.106c.099-.506.082-.924-.046-1.322-.298-.92-1.148-1.246-2.274-.882-1.142.369-1.63 1.162-1.32 2.12.14.436.34.711.814 1.133zM39.176 130.845l5.302-1.714.426 1.318-1.927 2.181c-.399.442-.627.676-1.038 1.055.283-.118.444-.17 1.004-.35l2.62-.848.372 1.15-5.303 1.714-.418-1.295 1.793-2.044c.49-.556.682-.745 1.173-1.217-.43.164-.568.209-1.257.432l-2.375.768-.372-1.15zM37.694 126.26l5.302-1.714 1.085 3.356-.935.302-.698-2.16-1.21.391.663 2.053-.935.303-.664-2.054-1.287.416.736 2.276-.935.302-1.122-3.471zM36.87 123.71l5.302-1.714.386 1.195-5.302 1.714-.386-1.195zM37.739 122.131l-.84.652c-.509-.529-.714-.877-.935-1.559-.282-.874-.273-1.554.035-2.17.32-.636.927-1.112 1.793-1.391 1.74-.563 3.108.086 3.639 1.726.195.605.24 1.082.167 1.799l-1.033-.106c.098-.506.082-.923-.047-1.322-.297-.919-1.147-1.245-2.274-.881-1.141.369-1.63 1.161-1.32 2.119.141.437.34.711.815 1.133zM34.452 116.23l5.302-1.714.386 1.196-5.302 1.714-.386-1.196zM33.013 111.78l5.302-1.714 1.09 3.371-.935.302-.703-2.176-1.21.392.668 2.068-.935.303-.669-2.069-2.222.718-.386-1.195zM31.574 107.329l5.302-1.714 1.09 3.371-.934.303-.704-2.176-1.21.391.668 2.069-.935.302-.668-2.069-2.222.718-.387-1.195zM30.092 102.744l5.302-1.714 1.085 3.356-.935.302-.698-2.161-1.21.392.663 2.053-.935.302-.664-2.053-1.287.416.736 2.276-.935.302-1.122-3.471z" fill="#fff"/><path d="M128.941 34.299c-2.232-6.662-5.974-9.905-7.083-10.75h-.057l-.356-.298L94.384 3.68A19.308 19.308 0 0083 0a19.308 19.308 0 00-11.384 3.681L43.525 23.995c1.33-.203 2.785-.33 4.36-.342h.207c8.08 0 13.43 3.818 13.653 3.98l22.086 16.068 37.64 27.217 7.937-24.03c.017-.052 1.817-5.767-.467-12.59z" fill="#6F2C91"/><path d="M113.963 47.004l1.436-2 .345-4.107 1.178.846-.184 1.821c-.036.326-.057.493-.123.873.356-.194.512-.274.799-.398l1.655-.754 1.107.794-3.762 1.654-1.436 2-1.015-.729zM109.559 43.843l2.883-4.015-1.301-.934.617-.86 3.637 2.612-.617.86-1.321-.949-2.883 4.014-1.015-.728zM106.587 41.708l3.499-4.873 1.016.728-3.5 4.874-1.015-.729zM103.049 39.168l3.499-4.874 1.015.729-2.882 4.014 1.932 1.388-.617.86-2.947-2.117zM100.883 37.613l3.5-4.874 1.015.729-3.5 4.874-1.015-.73zM96.684 34.598l3.5-4.874 1.62 1.163c.638.458.865.718.968 1.111.11.41-.011.922-.309 1.337-.39.542-.88.745-1.451.592.373.524.359 1.08-.051 1.65-.323.45-.786.738-1.245.76-.4.022-.787-.127-1.3-.496l-1.732-1.243zm3.022-2.121l.469.336c.306.22.469.294.652.287.183-.008.386-.14.537-.35.152-.212.212-.446.169-.648-.054-.199-.172-.337-.51-.58l-.417-.299-.9 1.254zm-1.466 2.042l.481.346c.3.215.432.278.606.296.216.016.465-.125.642-.372.162-.225.217-.495.148-.715-.052-.187-.177-.33-.437-.517l-.495-.355-.945 1.317zM95.401 31.916l-1.698-1.22-1.218.886-1.009-.724 5.217-3.64 1.061.762-1.723 6.149-1.074-.771.444-1.442zm.325-1.016l.407-1.309c.115-.366.145-.462.312-.929-.284.245-.344.287-.774.597l-1.11.805 1.165.836zM88.147 28.468l3.5-4.874 1.014.729-2.882 4.014 1.932 1.388-.617.859-2.947-2.116zM85.981 26.913l3.5-4.874 1.015.729-3.5 4.873-1.015-.728zM84.698 24.23L83 23.01l-1.219.887-1.008-.724 5.217-3.64 1.06.761-1.722 6.15-1.074-.771.444-1.443zm.325-1.015l.407-1.31c.115-.365.144-.461.312-.928-.284.244-.344.287-.774.597l-1.11.804 1.165.837zM78.156 21.294l1.795-6.098 1.054.757-.824 2.728a27.868 27.868 0 01-.557 1.682c.664-.527.827-.644 1.372-1.032l2.378-1.677 1.002.72-5.205 3.65-1.015-.73zM75.925 17.93l-1.698-1.218-1.218.886L72 16.874l5.217-3.64 1.06.761-1.722 6.15-1.074-.772.444-1.442zm.325-1.015l.407-1.308c.115-.366.145-.462.312-.93-.284.245-.344.287-.774.598l-1.11.804 1.165.836z" fill="#fff"/><path d="M20.78 87.907l22.194-15.865L80.61 44.827 60.084 29.894c-.044-.032-4.87-3.442-11.993-3.442h-.184c-7.087.058-11.353 2.62-12.491 3.405l-.293.212-.06.043L7.992 49.69C1.183 54.612-1.645 63.272.955 71.239l10.694 32.754a31.533 31.533 0 011.035-4.205c2.476-7.774 7.869-11.717 8.097-11.882v.001z" fill="#44ADE2"/><path d="M17.952 70.371c-.351.662-.624.97-1.216 1.401-.759.551-1.421.76-2.119.657-.72-.107-1.377-.543-1.926-1.291-1.103-1.504-.91-3.034.513-4.068.526-.382.975-.576 1.695-.735l.228 1.033c-.524.066-.924.215-1.27.466-.799.58-.843 1.506-.13 2.479.725.986 1.65 1.206 2.483.602.379-.275.582-.555.84-1.149l.902.604v.001zM19.564 63.505c.686.17 1.28.591 1.785 1.28.55.748.77 1.522.658 2.273-.093.666-.469 1.224-1.14 1.712-.733.532-1.436.698-2.169.52-.698-.173-1.281-.592-1.805-1.307-.525-.714-.753-1.513-.639-2.246.098-.66.47-1.224 1.141-1.713.732-.531 1.43-.705 2.169-.52zm-1.595 3.706c.72.98 1.6 1.264 2.305.752.705-.513.71-1.439.004-2.4-.704-.96-1.592-1.238-2.297-.726-.699.508-.703 1.434-.012 2.373v.002zM20.653 61.779l1.536-1.117 2.615 1.896c.316.238.543.407.946.734-.186-.475-.29-.744-.414-1.12l-1.012-3.062 1.523-1.106 3.362 4.582-.998.726-2.72-3.708c.191.47.215.543.388 1.057l1.155 3.506-.886.643-2.923-2.108c-.297-.21-.623-.46-.975-.743l2.721 3.708-.958.696-3.361-4.582v-.002zM27.072 57.114l1.297-.944c.805-.584 1.193-.765 1.67-.756.494.006.965.273 1.314.75.34.464.458.987.33 1.465-.125.427-.423.785-1.062 1.25l-.433.314 1.283 1.748-1.038.754-3.362-4.582h.001zm2.822 1.106c.352-.256.456-.351.55-.542.117-.217.08-.475-.104-.726-.18-.245-.426-.371-.67-.356-.228.023-.38.093-.72.34l-.299.217.943 1.285.3-.218zM31.104 54.184l1.037-.754 2.77 3.774 1.975-1.435.592.807-3.013 2.19-3.362-4.582zM34.769 51.52l1.038-.754 3.361 4.582-1.038.754-3.361-4.582zM40.509 52.699l.408 1.377-1.03.75-1.606-5.859 1.084-.788 5.178 3.262-1.098.798-1.201-.802-1.736 1.262zm-.192-2.57c-.304-.206-.384-.259-.764-.54.13.33.15.398.292.884l.369 1.254 1.19-.865-1.087-.733zM41.9 46.338l1.145-.832 2.735 1.17c.557.245.86.392 1.358.669-.205-.238-.307-.377-.661-.86l-1.661-2.264.998-.726 3.362 4.582-1.124.817-2.56-1.084a16.359 16.359 0 01-1.557-.746c.297.363.384.482.822 1.078l1.505 2.053-.998.726-3.362-4.583H41.9zM53.767 44.343c-.351.661-.624.97-1.216 1.4-.759.552-1.422.76-2.119.657-.72-.106-1.377-.542-1.926-1.29-1.103-1.504-.91-3.034.513-4.069.526-.382.975-.576 1.695-.734l.227 1.033c-.523.066-.924.214-1.269.465-.798.58-.843 1.507-.128 2.48.724.986 1.65 1.206 2.482.602.379-.276.581-.555.84-1.149l.902.604h-.001zM51.366 39.459l2.914-2.118.593.808-1.876 1.363.768 1.046 1.782-1.296.593.807-1.783 1.296.817 1.113 1.975-1.436.593.808-3.014 2.19-3.361-4.583-.001.002z" fill="#fff"/></svg>