<svg width="149" height="40" viewBox="0 0 149 40" fill="none" xmlns="http://www.w3.org/2000/svg"><path d="M9.24 11.04h-5.2L2.62 15H.2L5.32 1.16H8L13.24 15h-2.58l-1.42-3.96zm-.66-1.9L7.42 5.86c-.34-.94-.46-1.32-.78-2.38-.26.92-.32 1.1-.78 2.38L4.7 9.14h3.88zM15.098 15V8.38c-.02-1.86-.02-2.04-.1-3.58h2.2l.08 1.5c1.24-1.28 2.18-1.72 3.6-1.72 1.3 0 2.28.5 2.78 1.44.32.6.46 1.38.46 2.84V15h-2.34V8.98c0-.9-.06-1.34-.2-1.72-.24-.56-.76-.88-1.46-.88-.92 0-1.86.6-2.68 1.72V15h-2.34zM33.664.38h2.34v11.04c0 1.6.02 2.62.1 3.58h-2.26l-.08-1.46c-.88 1.22-1.72 1.68-3.08 1.68-1.34 0-2.32-.5-3.08-1.58-.66-.96-1.02-2.26-1.02-3.76 0-3.2 1.62-5.3 4.1-5.3 1.22 0 2.18.48 2.98 1.5V.38zm0 11.3v-3.6c-.62-1.1-1.46-1.7-2.36-1.7-1.4 0-2.3 1.34-2.3 3.48 0 2.16.88 3.56 2.24 3.56.92 0 1.68-.54 2.42-1.74zm17.434.96l.76 1.7c-.94.6-2.02.88-3.3.88-3.16 0-5.06-1.98-5.06-5.28 0-3.36 1.8-5.36 4.84-5.36 1.22 0 2.18.22 3.3.78l-.7 1.74c-.84-.52-1.54-.74-2.36-.74-1.7 0-2.66 1.26-2.66 3.54 0 2.22 1.04 3.52 2.86 3.52.86 0 1.52-.22 2.32-.78zm7.048-8.06c3.1 0 5 2.02 5 5.32 0 3.3-1.9 5.32-5 5.32-3.12 0-5-2.02-5-5.38 0-3.24 1.92-5.26 5-5.26zm0 1.78c-1.6 0-2.58 1.34-2.58 3.5 0 2.24.96 3.58 2.58 3.58 1.6 0 2.58-1.34 2.58-3.54s-.98-3.54-2.58-3.54zM65.703 15V8.38c-.02-1.88-.02-2-.1-3.58h2.2l.08 1.5c1.14-1.26 2.06-1.72 3.36-1.72 1.42 0 2.34.62 2.78 1.86 1.2-1.38 2.08-1.86 3.44-1.86 1.22 0 2.16.5 2.62 1.44.32.62.44 1.38.44 2.84V15h-2.34V8.98c0-.92-.06-1.34-.18-1.72-.2-.56-.68-.88-1.32-.88-.82 0-1.64.58-2.4 1.72V15h-2.34V8.74c0-1.66-.44-2.36-1.44-2.36-.84 0-1.7.6-2.46 1.72V15h-2.34zm17.85 4.3V8.88c0-2.06-.02-2.94-.1-4.08h2.24l.08 1.4c.94-1.16 1.82-1.62 3.1-1.62 2.46 0 4.1 2.1 4.1 5.3 0 1.64-.44 3.02-1.22 4-.74.92-1.64 1.34-2.9 1.34-1.28 0-2.16-.44-2.96-1.52v5.6h-2.34zm2.34-11.24v3.62c.74 1.2 1.48 1.74 2.4 1.74 1.36 0 2.26-1.4 2.26-3.56 0-2.14-.9-3.48-2.3-3.48-.9 0-1.66.54-2.36 1.68zM95.509 15V.38h2.34V15h-2.34zm5.624 0V4.8h2.34V15h-2.34zm1.16-14.96c.84 0 1.44.62 1.44 1.46s-.6 1.46-1.44 1.46-1.44-.6-1.44-1.48c0-.82.62-1.44 1.44-1.44zM112.378 15l-.08-1.16c-.98 1-1.82 1.38-3.16 1.38-2.06 0-3.28-1.16-3.28-3.08 0-1.24.56-2.24 1.54-2.82.68-.38 1.66-.56 3.1-.56.4 0 .74.02 1.66.06v-.2c0-1.5-.78-2.32-2.26-2.32-.88 0-1.72.26-2.76.86l-.62-1.68c1.24-.62 2.36-.9 3.7-.9 1.6 0 2.84.46 3.52 1.34.58.72.76 1.5.76 3.44v3.04c.02 1.3.06 2.22.1 2.6h-2.22zm-.22-2.8v-1.92c-.46-.04-.7-.04-1.06-.04-1.92 0-2.82.58-2.82 1.84 0 .94.62 1.54 1.58 1.54.9 0 1.64-.46 2.3-1.42zm5.694 2.8V8.38c-.02-1.86-.02-2.04-.1-3.58h2.2l.08 1.5c1.24-1.28 2.18-1.72 3.6-1.72 1.3 0 2.28.5 2.78 1.44.32.6.46 1.38.46 2.84V15h-2.34V8.98c0-.9-.06-1.34-.2-1.72-.24-.56-.76-.88-1.46-.88-.92 0-1.86.6-2.68 1.72V15h-2.34zm19.086-2.36l.76 1.7c-.94.6-2.02.88-3.3.88-3.16 0-5.06-1.98-5.06-5.28 0-3.36 1.8-5.36 4.84-5.36 1.22 0 2.18.22 3.3.78l-.7 1.74c-.84-.52-1.54-.74-2.36-.74-1.7 0-2.66 1.26-2.66 3.54 0 2.22 1.04 3.52 2.86 3.52.86 0 1.52-.22 2.32-.78zm11.628-2h-7.12c.18 1.92 1.12 2.82 2.94 2.82 1.02 0 2-.32 3.04-.98l.82 1.72c-1.22.7-2.44 1.02-3.92 1.02-3.42 0-5.34-1.9-5.34-5.3 0-3.32 1.86-5.34 4.88-5.34 2.12 0 3.58.88 4.2 2.5.36.94.48 1.8.5 3.56zM141.446 9h4.72c-.04-1.72-.88-2.7-2.3-2.7s-2.34 1.02-2.42 2.7zM.9 38.42l.62-1.78c1.08.6 1.78.82 2.7.82 1.06 0 1.68-.48 1.68-1.3 0-.36-.14-.68-.4-.86-.26-.2-.52-.3-1.64-.7-1.22-.44-1.66-.66-2.12-1.06-.5-.46-.78-1.12-.78-1.88 0-1.9 1.44-3.08 3.76-3.08 1.12 0 2.14.22 3.32.74l-.6 1.78c-.86-.5-1.8-.78-2.62-.78-.96 0-1.56.44-1.56 1.16 0 .4.18.66.56.88.32.18.32.18 1.6.66 2.1.78 2.8 1.52 2.8 2.92 0 2-1.56 3.28-3.98 3.28-1.22 0-2.24-.24-3.34-.8zm10.46-7.84H9.72V28.8h1.64v-2.22l2.34-.44v2.66h2.32v1.78H13.7v4.74c0 1.5.34 2.02 1.36 2.02.34 0 .6-.06 1.1-.24l.22 1.78c-.74.24-1.38.34-2.08.34-1.16 0-1.98-.36-2.44-1.06-.36-.54-.5-1.3-.5-2.72v-4.86zM24.096 39l-.08-1.16c-.98 1-1.82 1.38-3.16 1.38-2.06 0-3.28-1.16-3.28-3.08 0-1.24.56-2.24 1.54-2.82.68-.38 1.66-.56 3.1-.56.4 0 .74.02 1.66.06v-.2c0-1.5-.78-2.32-2.26-2.32-.88 0-1.72.26-2.76.86l-.62-1.68c1.24-.62 2.36-.9 3.7-.9 1.6 0 2.84.46 3.52 1.34.58.72.76 1.5.76 3.44v3.04c.02 1.3.06 2.22.1 2.6h-2.22zm-.22-2.8v-1.92c-.46-.04-.7-.04-1.06-.04-1.92 0-2.82.58-2.82 1.84 0 .94.62 1.54 1.58 1.54.9 0 1.64-.46 2.3-1.42zm5.675 2.8v-6.36c0-1.22-.02-1.7-.06-3.38l-.02-.46h2.2l.06 1.92c.6-1.4 1.5-2.08 2.7-2.08.32 0 .52.02.9.12l-.14 2.06c-.36-.06-.52-.08-.8-.08-1.16 0-2.08.84-2.52 2.34V39h-2.32zm8.665-8.42h-1.64V28.8h1.64v-2.22l2.34-.44v2.66h2.32v1.78h-2.32v4.74c0 1.5.34 2.02 1.36 2.02.34 0 .6-.06 1.1-.24l.22 1.78c-.74.24-1.38.34-2.08.34-1.16 0-1.98-.36-2.44-1.06-.36-.54-.5-1.3-.5-2.72v-4.86zm6.16 7.84l.62-1.78c1.08.6 1.78.82 2.7.82 1.06 0 1.68-.48 1.68-1.3 0-.36-.14-.68-.4-.86-.26-.2-.52-.3-1.64-.7-1.22-.44-1.66-.66-2.12-1.06-.5-.46-.78-1.12-.78-1.88 0-1.9 1.44-3.08 3.76-3.08 1.12 0 2.14.22 3.32.74l-.6 1.78c-.86-.5-1.8-.78-2.62-.78-.96 0-1.56.44-1.56 1.16 0 .4.18.66.56.88.32.18.32.18 1.6.66 2.1.78 2.8 1.52 2.8 2.92 0 2-1.56 3.28-3.98 3.28-1.22 0-2.24-.24-3.34-.8zm14.862.58V24.38h2.34v5.78c.94-1.04 2.1-1.58 3.46-1.58 1.3 0 2.3.5 2.8 1.44.32.6.44 1.38.44 2.84V39h-2.34v-6.02c0-.9-.06-1.34-.2-1.72-.22-.56-.76-.88-1.46-.88-.92 0-1.88.6-2.7 1.72V39h-2.34zm21.086-4.36h-7.12c.18 1.92 1.12 2.82 2.94 2.82 1.02 0 2-.32 3.04-.98l.82 1.72c-1.22.7-2.44 1.02-3.92 1.02-3.42 0-5.34-1.9-5.34-5.3 0-3.32 1.86-5.34 4.88-5.34 2.12 0 3.58.88 4.2 2.5.36.94.48 1.8.5 3.56zM73.204 33h4.72c-.04-1.72-.88-2.7-2.3-2.7s-2.34 1.02-2.42 2.7zm9.628 6v-6.36c0-1.22-.02-1.7-.06-3.38l-.02-.46h2.2l.06 1.92c.6-1.4 1.5-2.08 2.7-2.08.32 0 .52.02.9.12l-.14 2.06c-.36-.06-.52-.08-.8-.08-1.16 0-2.08.84-2.52 2.34V39h-2.32zm16.398-4.36h-7.12c.18 1.92 1.12 2.82 2.94 2.82 1.02 0 2-.32 3.04-.98l.82 1.72c-1.22.7-2.44 1.02-3.92 1.02-3.42 0-5.34-1.9-5.34-5.3 0-3.32 1.86-5.34 4.88-5.34 2.12 0 3.58.88 4.2 2.5.36.94.48 1.8.5 3.56zM92.11 33h4.72c-.04-1.72-.88-2.7-2.3-2.7s-2.34 1.02-2.42 2.7zm10.848 3.1c.88 0 1.54.66 1.54 1.56s-.66 1.56-1.54 1.56c-.9 0-1.54-.66-1.54-1.58 0-.88.66-1.54 1.54-1.54zm5.762 0c.88 0 1.54.66 1.54 1.56s-.66 1.56-1.54 1.56c-.9 0-1.54-.66-1.54-1.58 0-.88.66-1.54 1.54-1.54zm5.762 0c.88 0 1.54.66 1.54 1.56s-.66 1.56-1.54 1.56c-.9 0-1.54-.66-1.54-1.58 0-.88.66-1.54 1.54-1.54z" fill="#fff"/></svg>