<svg width="130" height="20" viewBox="0 0 130 20" fill="none" xmlns="http://www.w3.org/2000/svg"><path d="M4.22 15V3.12H.2V1.16h10.52v1.96H6.64V15H4.22zM15.45 4.58c3.1 0 5 2.02 5 5.32 0 3.3-1.9 5.32-5 5.32-3.12 0-5-2.02-5-5.38 0-3.24 1.92-5.26 5-5.26zm0 1.78c-1.6 0-2.58 1.34-2.58 3.5 0 2.24.96 3.58 2.58 3.58 1.6 0 2.58-1.34 2.58-3.54s-.98-3.54-2.58-3.54zM27.989 15V8.64c0-1.22-.02-1.7-.06-3.38l-.02-.46h2.2l.06 1.92c.6-1.4 1.5-2.08 2.7-2.08.32 0 .52.02.9.12l-.14 2.06c-.36-.06-.52-.08-.8-.08-1.16 0-2.08.84-2.52 2.34V15h-2.32zm16.398-4.36h-7.12c.18 1.92 1.12 2.82 2.94 2.82 1.02 0 2-.32 3.04-.98l.82 1.72c-1.22.7-2.44 1.02-3.92 1.02-3.42 0-5.34-1.9-5.34-5.3 0-3.32 1.86-5.34 4.88-5.34 2.12 0 3.58.88 4.2 2.5.36.94.48 1.8.5 3.56zM37.266 9h4.72c-.04-1.72-.88-2.7-2.3-2.7s-2.34 1.02-2.42 2.7zm9.628 6V.38h2.34V15h-2.34zm5.625 0V4.8h2.34V15h-2.34zM53.679.04c.84 0 1.44.62 1.44 1.46s-.6 1.46-1.44 1.46-1.44-.6-1.44-1.48c0-.82.62-1.44 1.44-1.44zM63.764 15l-.08-1.16c-.98 1-1.82 1.38-3.16 1.38-2.06 0-3.28-1.16-3.28-3.08 0-1.24.56-2.24 1.54-2.82.68-.38 1.66-.56 3.1-.56.4 0 .74.02 1.66.06v-.2c0-1.5-.78-2.32-2.26-2.32-.88 0-1.72.26-2.76.86l-.62-1.68c1.24-.62 2.36-.9 3.7-.9 1.6 0 2.84.46 3.52 1.34.58.72.76 1.5.76 3.44v3.04c.02 1.3.06 2.22.1 2.6h-2.22zm-.22-2.8v-1.92c-.46-.04-.7-.04-1.06-.04-1.92 0-2.82.58-2.82 1.84 0 .94.62 1.54 1.58 1.54.9 0 1.64-.46 2.3-1.42zM71.32 15h-2.24c.08-1.1.1-1.86.1-3.58V.38h2.34v5.7c.8-1.02 1.74-1.5 2.96-1.5 2.5 0 4.12 2.1 4.12 5.3 0 1.64-.44 3.02-1.22 4-.74.92-1.64 1.34-2.9 1.34-1.34 0-2.18-.46-3.08-1.68l-.08 1.46zm.2-6.92v3.6c.72 1.18 1.48 1.74 2.4 1.74 1.36 0 2.26-1.4 2.26-3.56 0-2.14-.9-3.48-2.3-3.48-.92 0-1.74.6-2.36 1.7zM81.113 15V4.8h2.34V15h-2.34zM82.273.04c.84 0 1.44.62 1.44 1.46s-.6 1.46-1.44 1.46-1.44-.6-1.44-1.48c0-.82.62-1.44 1.44-1.44zM86.738 15V.38h2.34V15h-2.34zm5.625 0V4.8h2.34V15h-2.34zM93.523.04c.84 0 1.44.62 1.44 1.46s-.6 1.46-1.44 1.46-1.44-.6-1.44-1.48c0-.82.62-1.44 1.44-1.44zm5.005 6.54h-1.64V4.8h1.64V2.58l2.34-.44V4.8h2.32v1.78h-2.32v4.74c0 1.5.34 2.02 1.36 2.02.34 0 .6-.06 1.1-.24l.22 1.78c-.74.24-1.38.34-2.08.34-1.16 0-1.98-.36-2.44-1.06-.36-.54-.5-1.3-.5-2.72V6.58zm9.501 8.26l-4.1-10.04h2.48l2.04 5.16c.38.92.54 1.4.86 2.34.4-1.2.44-1.3.86-2.44l1.92-5.06h2.28l-4.12 10.42c-1.38 3.46-2.22 4.32-4.3 4.32-.68 0-1.22-.1-2.04-.36l.4-1.82c.54.22.86.3 1.28.3 1.08 0 1.7-.72 2.44-2.82zm8.386-2.74c.88 0 1.54.66 1.54 1.56s-.66 1.56-1.54 1.56c-.9 0-1.54-.66-1.54-1.58 0-.88.66-1.54 1.54-1.54zm5.762 0c.88 0 1.54.66 1.54 1.56s-.66 1.56-1.54 1.56c-.9 0-1.54-.66-1.54-1.58 0-.88.66-1.54 1.54-1.54zm5.762 0c.88 0 1.54.66 1.54 1.56s-.66 1.56-1.54 1.56c-.9 0-1.54-.66-1.54-1.58 0-.88.66-1.54 1.54-1.54z" fill="#fff"/></svg>